<?xml version="1.0" encoding="UTF-8"?>
<svg id="Capa_1" data-name="Capa 1" xmlns="http://www.w3.org/2000/svg" xmlns:xlink="http://www.w3.org/1999/xlink" viewBox="0 0 425.2 425.2">
  <defs>
    <style>
      .cls-1 {
        fill: #343434;
      }

      .cls-2 {
        fill: #2c5967;
      }

      .cls-3 {
        fill: #8c8c8b;
      }

      .cls-4 {
        fill: #c39e41;
      }

      .cls-5 {
        fill: #87201f;
        font-family: BungeeLayers-Regular, 'Bungee Layers';
        font-size: 30px;
      }

      .cls-6 {
        fill: #fff;
      }

      .cls-7 {
        fill: #5f4524;
      }

      .cls-8 {
        fill: #d99b8b;
      }

      .cls-9 {
        fill: #865b4a;
      }

      .cls-10 {
        fill: #f39323;
      }

      .cls-11 {
        fill: #c13a2a;
      }

      .cls-12 {
        fill: #9a5d2b;
      }

      .cls-13 {
        fill: #363636;
      }

      .cls-14 {
        opacity: .2;
      }

      .cls-14, .cls-15, .cls-16 {
        fill: #010101;
      }

      .cls-17 {
        fill: #a6a6a5;
      }

      .cls-18 {
        fill: #998675;
      }

      .cls-19 {
        fill: #a47669;
      }

      .cls-20 {
        fill: #5f5f5f;
      }

      .cls-21 {
        fill: #e63737;
      }

      .cls-22 {
        fill: #bb5c32;
      }

      .cls-23 {
        fill: #818080;
      }

      .cls-24 {
        fill: #a6a6a6;
      }

      .cls-25 {
        fill: #8e8e8d;
      }

      .cls-26 {
        fill: #464545;
      }

      .cls-27 {
        fill: #202121;
      }

      .cls-28 {
        fill: #c4a289;
      }

      .cls-29 {
        fill: #dbb751;
      }

      .cls-30 {
        fill: #404e5f;
      }

      .cls-31 {
        fill: #f9b233;
      }

      .cls-31, .cls-32, .cls-33, .cls-34, .cls-35, .cls-36 {
        stroke-miterlimit: 10;
      }

      .cls-31, .cls-33, .cls-36 {
        stroke-width: .34px;
      }

      .cls-31, .cls-36 {
        stroke: #683c11;
      }

      .cls-15 {
        opacity: .3;
      }

      .cls-37 {
        fill: #be1622;
      }

      .cls-38 {
        fill: #b4b4b4;
      }

      .cls-32 {
        fill: #3385c7;
        stroke: #312783;
      }

      .cls-32, .cls-34, .cls-35 {
        stroke-width: 2px;
      }

      .cls-39 {
        opacity: .65;
      }

      .cls-40 {
        fill: #b7b6b6;
      }

      .cls-41 {
        fill: #1e3c45;
      }

      .cls-42 {
        fill: #99844b;
      }

      .cls-43 {
        fill: #87742a;
      }

      .cls-44 {
        fill: #f0c527;
      }

      .cls-33 {
        fill: none;
        stroke: #352e35;
      }

      .cls-45 {
        fill: #29505d;
      }

      .cls-46 {
        fill: #d29786;
      }

      .cls-47 {
        filter: url(#drop-shadow-1);
      }

      .cls-48 {
        fill: #c9a620;
      }

      .cls-49 {
        fill: #e2f1f0;
      }

      .cls-50 {
        fill: #a8a8a7;
      }

      .cls-51 {
        fill: #cd472e;
      }

      .cls-52 {
        fill: #9d9d9c;
      }

      .cls-53 {
        fill: #9e151a;
      }

      .cls-54 {
        fill: #4b5c6e;
      }

      .cls-55 {
        fill: #626262;
      }

      .cls-56 {
        fill: #c58e7f;
      }

      .cls-57 {
        fill: #1c3741;
      }

      .cls-58 {
        fill: #cdcccc;
      }

      .cls-59 {
        fill: #4e4d4d;
      }

      .cls-60 {
        fill: #242424;
      }

      .cls-61 {
        fill: #8f8f8f;
      }

      .cls-62 {
        fill: #f1894a;
      }

      .cls-63 {
        fill: #316483;
      }

      .cls-64 {
        fill: #26221f;
      }

      .cls-65 {
        fill: #b58274;
      }

      .cls-34 {
        fill: #a1231d;
        stroke: #be1622;
      }

      .cls-66 {
        fill: #2b2c2c;
      }

      .cls-67 {
        fill: #386f81;
      }

      .cls-68 {
        filter: url(#drop-shadow-2);
      }

      .cls-69 {
        fill: #171717;
      }

      .cls-70 {
        fill: #ecda17;
      }

      .cls-71 {
        fill: #39271f;
      }

      .cls-72 {
        fill: #a4a3a3;
      }

      .cls-35 {
        fill: #f39200;
        stroke: #f39200;
      }

      .cls-73 {
        fill: #1d1d1d;
      }

      .cls-74 {
        fill: #434342;
      }

      .cls-75 {
        fill: #202020;
      }

      .cls-76 {
        fill: #f7b5a5;
      }

      .cls-77 {
        fill: #1f262e;
      }

      .cls-78 {
        fill: #deb348;
      }

      .cls-79 {
        fill: #e7e6e6;
      }

      .cls-80 {
        fill: #ab934e;
      }

      .cls-81 {
        fill: #535353;
      }

      .cls-82 {
        fill: #58a152;
      }

      .cls-83 {
        fill: #dd3c50;
      }

      .cls-84 {
        fill: #2c3540;
      }

      .cls-85 {
        fill: #394553;
      }

      .cls-86 {
        fill: #ae954f;
      }

      .cls-87 {
        fill: #f8ab46;
      }

      .cls-88 {
        fill: #949494;
      }

      .cls-89 {
        fill: #484848;
      }

      .cls-90 {
        fill: #8a8a8a;
      }

      .cls-36 {
        fill: #b2b2b2;
      }

      .cls-91 {
        fill: #352e35;
      }

      .cls-92 {
        fill: #c7b29a;
      }

      .cls-93 {
        fill: #eb5c2c;
      }

      .cls-94 {
        fill: #e17a28;
      }

      .cls-95 {
        fill: #793c22;
      }

      .cls-96 {
        fill: #645732;
      }

      .cls-97 {
        fill: #51a4be;
      }

      .cls-98 {
        fill: #2a292a;
      }

      .cls-99 {
        fill: #c4c4c4;
      }

      .cls-100 {
        fill: #306270;
      }

      .cls-101 {
        fill: #814022;
      }

      .cls-102 {
        fill: #999998;
      }

      .cls-103 {
        fill: #b2a319;
      }

      .cls-104 {
        fill: #3c778b;
      }

      .cls-16 {
        opacity: .25;
      }
    </style>
    <filter id="drop-shadow-1" filterUnits="userSpaceOnUse">
      <feOffset dx=".44" dy=".44"/>
      <feGaussianBlur result="blur" stdDeviation=".44"/>
      <feFlood flood-color="#010101" flood-opacity=".2"/>
      <feComposite in2="blur" operator="in"/>
      <feComposite in="SourceGraphic"/>
    </filter>
    <filter id="drop-shadow-2" filterUnits="userSpaceOnUse">
      <feOffset dx=".36" dy=".36"/>
      <feGaussianBlur result="blur-2" stdDeviation=".36"/>
      <feFlood flood-color="#010101" flood-opacity=".2"/>
      <feComposite in2="blur-2" operator="in"/>
      <feComposite in="SourceGraphic"/>
    </filter>
  </defs>
  <path class="cls-82" d="m308.03,210.47c0,60.37-48.93,109.3-109.3,109.3s-109.29-48.93-109.29-109.3,48.94-109.3,109.29-109.3,109.3,48.94,109.3,109.3Z"/>
  <path class="cls-6" d="m212.59,316.46c-57.27,0-103.86-46.59-103.86-103.87s46.59-103.87,103.86-103.87,103.87,46.59,103.87,103.87-46.59,103.87-103.87,103.87Zm0-199.73c-52.86,0-95.86,43.01-95.86,95.87s43,95.87,95.86,95.87,95.87-43.01,95.87-95.87-43.01-95.87-95.87-95.87Z"/>
  <path class="cls-6" d="m213.66,331.4c-57.27,0-103.86-46.59-103.86-103.87s46.59-103.87,103.86-103.87,103.87,46.59,103.87,103.87-46.59,103.87-103.87,103.87Zm0-199.73c-52.86,0-95.86,43.01-95.86,95.87s43,95.87,95.86,95.87,95.87-43.01,95.87-95.87-43.01-95.87-95.87-95.87Z"/>
  <path class="cls-6" d="m215.79,347.4c-57.27,0-103.86-46.59-103.86-103.87s46.59-103.87,103.86-103.87,103.87,46.59,103.87,103.87-46.59,103.87-103.87,103.87Zm0-199.73c-52.86,0-95.86,43.01-95.86,95.87s43,95.87,95.86,95.87,95.87-43.01,95.87-95.87-43.01-95.87-95.87-95.87Z"/>
  <path class="cls-6" d="m223.26,365.53c-57.27,0-103.86-46.59-103.86-103.87s46.59-103.87,103.86-103.87,103.87,46.59,103.87,103.87-46.59,103.87-103.87,103.87Zm0-199.73c-52.86,0-95.86,43.01-95.86,95.87s43,95.87,95.86,95.87,95.87-43.01,95.87-95.87-43.01-95.87-95.87-95.87Z"/>
  <path class="cls-6" d="m225.39,380.46c-57.27,0-103.86-46.59-103.86-103.87s46.59-103.87,103.86-103.87,103.87,46.59,103.87,103.87-46.59,103.87-103.87,103.87Zm0-199.73c-52.86,0-95.86,43.01-95.86,95.87s43,95.87,95.86,95.87,95.87-43.01,95.87-95.87-43.01-95.87-95.87-95.87Z"/>
  <path class="cls-6" d="m222.19,378.33c-57.27,0-103.86-46.59-103.86-103.87s46.59-103.87,103.86-103.87,103.87,46.59,103.87,103.87-46.59,103.87-103.87,103.87Zm0-199.73c-52.86,0-95.86,43.01-95.86,95.87s43,95.87,95.86,95.87,95.87-43.01,95.87-95.87-43.01-95.87-95.87-95.87Z"/>
  <path class="cls-34" d="m233.37,316.45c-68.72,0-124.62-56.71-124.62-126.42s55.91-126.43,124.62-126.43,124.63,56.71,124.63,126.43-55.91,126.42-124.63,126.42Zm0-249.43c-66.86,0-121.25,55.18-121.25,123s54.39,123,121.25,123,121.26-55.18,121.26-123-54.39-123-121.26-123Z"/>
  <path class="cls-32" d="m217.37,331.38c-68.72,0-124.62-56.71-124.62-126.42s55.91-126.43,124.62-126.43,124.63,56.71,124.63,126.43-55.91,126.42-124.63,126.42Zm0-249.43c-66.86,0-121.25,55.18-121.25,123s54.39,123,121.25,123,121.26-55.18,121.26-123-54.39-123-121.26-123Z"/>
  <path class="cls-35" d="m251.5,303.65c-68.72,0-124.62-56.71-124.62-126.42s55.91-126.43,124.62-126.43,124.63,56.71,124.63,126.43-55.91,126.42-124.63,126.42Zm0-249.43c-66.86,0-121.25,55.18-121.25,123s54.39,123,121.25,123,121.26-55.18,121.26-123-54.39-123-121.26-123Z"/>
  <polygon class="cls-6" points="76.07 205.08 79.17 211.35 86.1 212.36 81.08 217.24 82.27 224.14 76.07 220.89 69.88 224.14 71.06 217.24 66.05 212.36 72.97 211.35 76.07 205.08"/>
  <g>
    <g>
      <g>
        <path class="cls-38" d="m246.82,122.08s-1.82.05-6.65-4.69l-3.79,4.38s4.03,1.78,2.97,5.38l7.47-5.07Z"/>
        <path class="cls-25" d="m254.98,140.15c4.12-7.29-.93-11.95-.93-11.95l-6.76-5.84c-4.97-3.1-7.13,3.34-7.13,3.34l-1.51,2.74c-1.84,2.89.2,4.33.2,4.33l4.82,4.17c1.43,1.13,3.19-.52,3.19-.52l2.93-2.5s1.57-1.24,2.8.18c0,0,1.94,2.72,2.41,6.07Z"/>
        <rect class="cls-50" x="234.1" y="135.66" width="8.73" height="3.97" transform="translate(-21.64 227.95) rotate(-49.14)"/>
        <path class="cls-52" d="m242.09,123.73s-.01-.01-.02-.02c-.02,0-.04,0-.06-.01-1.92-.59-3.48-1.6-4.81-2.87l-.82.94s4.03,1.78,2.97,5.38l3.64-2.47c-.31-.31-.61-.63-.91-.95Z"/>
        <path class="cls-52" d="m241.64,119.02c.41,1.06,1.1,1.9,1.86,2.73.49.53.99,1.05,1.51,1.56l1.81-1.23s-1.49.04-5.34-3.44c.05.13.1.26.15.39Z"/>
        <path class="cls-37" d="m213.33,172.12c-.68.79-1.88.88-2.67.19l-2.53-2.19c-.79-.68-.88-1.88-.19-2.67,4.14-2.56,15.7-18.16,15.7-18.16,1.97-3.56,8.58-9.92,8.58-9.92.68-.79,1.88-.88,2.67-.19l2.53,2.19c.79.68.88,1.88.19,2.67,0,0-4.16,6.25-8.55,9.88,0,0-12.92,12.8-15.73,18.2Z"/>
        <path class="cls-72" d="m242.75,134.06c-.59-.27-1.23-.55-1.7-1.02-1.39-1.44-.32-3.41.56-4.8.86-1.36,1-3.05,2.43-4.02,2-1.36,4.3-.1,5.91,1.26.86.73,1.64,1.54,2.39,2.38.25.28.46.52.64.73.19.03.38.13.56.29.5.44,1.03.64,1.58.67-.57-.88-1.08-1.36-1.08-1.36l-6.76-5.84c-4.97-3.1-7.13,3.34-7.13,3.34l-1.51,2.74c-1.84,2.89.2,4.33.2,4.33l4.82,4.17c1.43,1.13,3.19-.52,3.19-.52l.46-.39c-.61-.22-1.21-.44-1.81-.68-.94-.38-1.83-.84-2.75-1.26Z"/>
        <path class="cls-3" d="m240.37,116.66l-1.33-1.15s-.07-.05-.1-.07l-4.71,5.45s.05.06.09.09l1.33,1.15c.26.23.66.2.89-.06l3.91-4.52c.23-.26.2-.66-.06-.89Z"/>
        <path class="cls-72" d="m240.03,116.66l-.29-.25c.25.21.27.59.06.84l-3.67,4.24c-.21.25-.59.27-.84.06l.29.25c.25.21.62.19.84-.06l3.67-4.24c.21-.25.19-.62-.06-.83Z"/>
        <path class="cls-23" d="m236.96,118.49c-1.3,1.5-2.52,2.58-2.72,2.4-.2-.18.69-1.53,1.98-3.04,1.3-1.5,2.52-2.58,2.72-2.4.2.18-.69,1.53-1.98,3.04Z"/>
        <path class="cls-53" d="m237.62,144.04c.68-.79.6-1.98-.19-2.67l-.63-.54c-1.9,2.83-3.68,5.78-6.18,8.12-2.81,2.63-6.13,4.75-8.49,7.83-1.88,2.46-10.12,12.5-12.11,14.97l.64.56c.79.68,1.98.6,2.67-.19,2.81-5.4,15.73-18.2,15.73-18.2,4.39-3.63,8.55-9.88,8.55-9.88Z"/>
        <path class="cls-83" d="m235.88,140.64c-.46-.43-1.06-.71-1.67-.7-.61,0-1.15.32-1.58.74-.11.1-.21.22-.32.33l-.32.35-.64.69-1.27,1.4c-.42.47-.83.94-1.24,1.42-.41.48-.82.96-1.21,1.44-.4.49-.78.98-1.15,1.48-.37.5-.72,1.01-1.03,1.54-.65,1.1-1.33,2.17-2.04,3.22-.36.53-.72,1.05-1.09,1.56-.38.51-.76,1.02-1.16,1.52-.4.5-7.23,8.41-7.67,8.88-.44.47-.91.92-1.43,1.33l-.8.54c-.26.18-.52.36-.77.54-.51.37-1.01.75-1.47,1.16l-.02.02h0s-.09.07-.13.11c-.04.04-.08.09-.11.14-.06.1-.11.22-.12.34,0,.06,0,.12,0,.19,0,.06.01.13.03.19.01.06.03.13.06.19.02.06.05.12.08.19.03.06.06.12.1.18.04.06.07.12.12.17.08.11.17.22.26.33.09.11.19.21.29.31.1.1.2.2.31.29-.11-.08-.23-.16-.34-.25-.11-.09-.22-.18-.33-.28-.1-.1-.21-.2-.3-.31-.05-.05-.09-.11-.14-.17-.05-.06-.08-.12-.13-.18-.04-.06-.08-.13-.11-.19-.03-.07-.06-.14-.09-.21-.03-.07-.04-.15-.06-.22-.01-.08-.02-.16-.01-.24,0-.16.05-.32.13-.47.04-.07.08-.14.14-.2.06-.06.11-.12.19-.17l-.03.02c.44-.47.92-.9,1.41-1.3.24-.2.49-.4.74-.6l.38-.29.37-.28c.46-.39.88-.85,1.29-1.32.4-.48,7.21-8.38,7.59-8.88.38-.5.74-1.01,1.1-1.53.36-.51.71-1.03,1.06-1.56.35-.52.69-1.05,1.03-1.58.34-.53.67-1.06,1-1.6.33-.56.71-1.09,1.09-1.6.39-.51.8-1,1.21-1.49.42-.48.84-.96,1.27-1.43.43-.46.87-.92,1.32-1.37.44-.45.9-.9,1.35-1.34l.69-.66c.24-.22.45-.43.71-.65.26-.21.54-.39.85-.52.16-.06.32-.11.48-.14.17-.02.33-.03.5-.02.67.06,1.26.43,1.66.92Z"/>
        <path class="cls-23" d="m241.38,123.43c-.14.18-.26.36-.37.54.13-.18.25-.36.37-.54Z"/>
        <path class="cls-23" d="m254.05,128.19l-1.92-1.66c.57.91,1.09,1.94.88,2.96-.16.79-.73,1.56-1.53,1.81-.71.22-1.37.09-2.1.13-1.55.09-2.53,1.11-3.76,1.95-1.29.87-2.79,1.51-4.37,1.2-.14-.03-.28-.06-.43-.1l2.84,2.46c1.43,1.13,3.19-.52,3.19-.52l2.93-2.5s1.57-1.24,2.8.18c0,0,1.94,2.72,2.41,6.07,4.12-7.29-.93-11.95-.93-11.95Z"/>
      </g>
      <g>
        <path class="cls-40" d="m235.13,166.42l4.83-3.3-14.91-21.86c-2.99-4.8-2.78-8.43-2.78-8.43l-8.89,6.06s3.46,1.13,6.84,5.67l14.91,21.86Z"/>
        <g>
          <path class="cls-72" d="m218.16,130.06c.53-1.27-.81-1.95-.81-1.95l-6.47-4.7c-1.1-1.13.51-1.41.51-1.41,8.22.96,10.2,4.42,10.2,4.42,3.15,4.91-1.77,9.9-1.77,9.9-5.33,5.36-9.74,2.49-9.74,2.49,0,0-3.59-1.71-5.16-9.84,0,0,.17-1.62,1.37-.61l5.17,6.1s.82,1.26,2,.66c0,0,3.47-1.48,4.69-5.05Z"/>
          <path class="cls-99" d="m205.81,128.32l5.63,6.65s.89,1.37,2.18.72c0,0,3.78-1.61,5.11-5.51.57-1.39-.88-2.12-.88-2.12l-7.05-5.12c-.15-.15-.25-.29-.32-.41-.07.21,0,.49.36.86l6.47,4.7s1.33.68.81,1.95c-1.22,3.57-4.69,5.05-4.69,5.05-1.19.6-2-.66-2-.66l-5.17-6.1c-.4-.34-.68-.38-.89-.29.13.06.27.15.43.28Z"/>
          <path class="cls-88" d="m211.39,122s-.94.17-.89.75c.23-.19.59-.26.59-.26,7.25.85,8.99,3.9,8.99,3.9,2.77,4.33-1.56,8.73-1.56,8.73-4.7,4.73-8.59,2.2-8.59,2.2,0,0-3.17-1.51-4.55-8.68,0,0,.04-.37.21-.61-.58,0-.68.94-.68.94,1.57,8.13,5.16,9.84,5.16,9.84,0,0,4.41,2.87,9.74-2.5,0,0,4.91-4.98,1.77-9.89,0,0-1.98-3.45-10.2-4.42Z"/>
        </g>
        <path class="cls-17" d="m235.25,158.35c.54.79.33,1.86-.45,2.4h0c-.79.54-1.86.33-2.4-.45l-12.83-18.81c-.54-.79-.33-1.86.45-2.4h0c.79-.54,1.86-.33,2.4.45l12.83,18.81Z"/>
        <path class="cls-102" d="m234.73,158.21c.52.76.43,1.72-.2,2.15h0c-.63.43-1.55.16-2.07-.6l-12.37-18.13c-.52-.76-.43-1.72.2-2.15h0c.63-.43,1.55-.16,2.07.6l12.37,18.13Z"/>
        <path class="cls-40" d="m236.31,162.96c-2.77,1.89-3.48,5.66-1.59,8.43,1.89,2.77,5.66,3.48,8.43,1.59,2.77-1.89,3.48-5.66,1.59-8.43-1.89-2.77-5.66-3.48-8.43-1.59Zm6.59,6.54l-2.91,1.98-3.17-1.53-.26-3.51,2.91-1.98,3.17,1.53.26,3.51Z"/>
        <g>
          <polygon class="cls-88" points="235.96 166.85 236.22 170.36 239.39 171.89 239.99 171.48 236.82 169.96 236.55 166.45 235.96 166.85"/>
          <path class="cls-88" d="m236.31,162.96c-.1.07-.19.14-.29.22,2.73-1.64,6.3-.89,8.12,1.78,1.82,2.67,1.22,6.26-1.3,8.21.1-.06.21-.12.31-.19,2.77-1.89,3.48-5.66,1.59-8.43-1.89-2.77-5.66-3.48-8.43-1.59Z"/>
        </g>
      </g>
    </g>
    <g>
      <rect class="cls-31" x="208.84" y="170.14" width="39.77" height="6.17"/>
      <path class="cls-91" d="m197.18,137.64s1.78-2.36,2.88-2.47c4.25-.41,12.62,8.09,13.3,12.89.16,1.09-2.74,2.06-2.74,2.06l-13.44-12.48Z"/>
      <path class="cls-11" d="m192.38,136.09c-14.12,0-21.26,8.28-21.26,10.09v28.07c0,1.82,1.47,3.29,3.29,3.29h34.87c1.82,0,3.29-1.47,3.29-3.29l.1-5.43-2.46-1.84s2.68-1.84,2.68-10.38-6.39-20.51-20.51-20.51Z"/>
      <circle class="cls-51" cx="192.38" cy="156.61" r="13.5" transform="translate(-30.83 48.39) rotate(-13.28)"/>
      <rect class="cls-36" x="248.06" y="169.46" width="2.19" height="9.19"/>
      <line class="cls-33" x1="213.5" y1="175.49" x2="246.96" y2="175.49"/>
      <line class="cls-33" x1="213.57" y1="175.49" x2="213.57" y2="173.5"/>
      <line class="cls-33" x1="217.26" y1="175.49" x2="217.26" y2="173.5"/>
      <line class="cls-33" x1="220.96" y1="175.49" x2="220.96" y2="173.5"/>
      <line class="cls-33" x1="224.65" y1="175.49" x2="224.65" y2="173.5"/>
      <line class="cls-33" x1="228.35" y1="175.49" x2="228.35" y2="173.5"/>
      <line class="cls-33" x1="232.04" y1="175.49" x2="232.04" y2="173.5"/>
      <line class="cls-33" x1="235.74" y1="175.49" x2="235.74" y2="173.5"/>
      <line class="cls-33" x1="239.43" y1="175.49" x2="239.43" y2="173.5"/>
      <line class="cls-33" x1="243.13" y1="175.49" x2="243.13" y2="173.5"/>
      <line class="cls-33" x1="246.82" y1="175.49" x2="246.82" y2="173.5"/>
    </g>
  </g>
  <polygon class="cls-103" points="355.77 165.06 358.76 171.33 365.47 172.34 360.62 177.23 361.76 184.13 355.77 180.87 349.77 184.13 350.91 177.23 346.06 172.34 352.77 171.33 355.77 165.06"/>
  <polygon class="cls-103" points="374.59 181.57 377.58 187.84 384.29 188.85 379.44 193.73 380.58 200.63 374.59 197.38 368.59 200.63 369.73 193.73 364.88 188.85 371.59 187.84 374.59 181.57"/>
  <polygon class="cls-103" points="356.73 194.92 359.73 201.2 366.43 202.21 361.58 207.09 362.73 213.99 356.73 210.74 350.74 213.99 351.88 207.09 347.03 202.21 353.73 201.2 356.73 194.92"/>
  <polygon class="cls-103" points="346.07 229.06 349.06 235.33 355.77 236.34 350.92 241.23 352.06 248.13 346.07 244.87 340.07 248.13 341.21 241.23 336.36 236.34 343.07 235.33 346.07 229.06"/>
  <polygon class="cls-103" points="364.4 215.18 367.4 221.46 374.1 222.47 369.25 227.35 370.4 234.25 364.4 230.99 358.4 234.25 359.55 227.35 354.7 222.47 361.4 221.46 364.4 215.18"/>
  <polygon class="cls-103" points="382.33 202.39 385.33 208.67 392.03 209.67 387.18 214.56 388.33 221.46 382.33 218.2 376.34 221.46 377.48 214.56 372.63 209.67 379.33 208.67 382.33 202.39"/>
  <g class="cls-39">
    <g>
      <path class="cls-70" d="m278.16,307.16c.27.05.54.12.78.21.13.02.27.1.38.19.59-.31,1.15-.59,1.72-.93.32-.17.62-.33.94-.5-.67.1-1.37.19-2.06.36-.29.09-.64.19-.96.31-.24.14-.51.24-.78.36h0Zm-128.17-19.05c15.38,12.85,80.2,16.53,117.5,3.11.51-.24,1.02-.48,1.53-.71.4-.17.78-.33,1.18-.43.21-.07.51-.14.67-.07.16.07.11.24,0,.43,0,0-.03.02-.05.05-.05.05-.11.07-.13.12-.16.1-.32.19-.46.29-.59.36-1.13.69-1.69,1.02-.48.28-.94.57-1.42.86,1.8-.93,3.56-1.85,5.39-2.76,2.06-1.05,4.07-2.23,6.16-3.25.56-.26,1.1-.52,1.63-.74.46-.17.88-.33,1.31-.45.24-.07.56-.14.78-.07.16.05.11.24.03.4-.03.02-.05.05-.05.07-.05.02-.13.07-.16.09-.16.12-.32.21-.51.31-.59.36-1.18.67-1.77,1.02-1.72,1.02-3.48,2.02-5.17,3.04-1.77,1.05-3.51,2.07-5.31,3.14.05-.02.11-.05.13-.05.16-.05.32-.12.48-.17,3.3-1.83,6.57-3.68,9.91-5.25,1.21-.52,2.28-1.16,3.46-1.76.19-.12.38-.19.56-.26.16-.07.32-.09.48-.12.13,0,.24.02.38.07.11.09.21.19.32.29,0,.05-.03.09-.05.17-.03.07-.11.14-.16.19-.27.19-.54.38-.8.52-.72.45-1.5.86-2.28,1.24-.27.14-.59.28-.88.43.03.02.03.05.03.07.05.02.08.05.08.07.05,0,.05-.02.08-.02.24-.1.46-.17.64-.21.05,0,.11-.02.19-.02,0,.02.05,0,.08.02.03.02,0,.09-.08.14-.05.07-.16.17-.21.24-.54.43-1.13.81-1.66,1.16-.16.07-.27.14-.38.24-.48.38-.96.76-1.47,1.14-.91.69-1.82,1.4-2.76,2.11,1.66-1,3.14-2.14,4.9-2.97.54-.24.86-.55,1.37-.86.05-.05.13-.1.21-.14.08,0,.16,0,.21.02.08.02.13.07.16.14.11.09.16.19.24.33.03.02.03.07.03.14-.03.05-.03.09-.08.14-.05.12-.13.24-.24.31-.24.24-.54.45-.86.64-.19.14-.46.26-.62.4,0,.02-.03.02-.03.02,0,0,.03.02,0,.02h.05c.13-.02.24-.07.4-.09.11-.02.19-.07.27-.05,0-.02.03,0,.08,0,0,.02.03.02.03.05h0c1.45-.62,2.87-1.24,4.26-1.92.46-.19.91-.43,1.39-.64.05-.02.05-.05.08-.07.13-.07.27-.14.4-.19.11-.07.24-.12.35-.14.13-.02.29-.07.43-.07.19-.02.38-.05.54-.02.56-.02,1.13,0,1.71.02.59.07,1.26.05,1.9-.05.56-.1,1.13-.24,1.69-.4.56-.14,1.15-.29,1.74-.38.64-.1,1.31-.12,1.96-.05.86.07,1.66.21,2.55.24.67.02,1.37.21,2.01.45.7.26,1.39.59,2.01.97.21.14.48.31.64.5.13.12.21.28.21.45,0,.14-.16.26-.32.33-.29.1-.67.12-1.05.14-.21.02-.48-.02-.7-.07-.32-.05-.64-.12-.99-.17-.59-.12-1.18-.21-1.77-.29,0-.02-.05,0-.08,0h-.03s-.05.02-.05.02l-.03.02s-.03.09-.03.14c.05.17.11.31.13.47,0,.07,0,.14-.03.19-.03.05-.05.05-.11.07,0,.02-.08.05-.11.05-.05.02-.13.02-.24.02s-.21-.02-.27-.05c-.35-.05-.62-.12-.91-.19-1.05-.28-2.28-.31-3.4-.28-1.66.09-3.32.26-4.96.55-1.61.33-3.24.74-4.82,1.26-.19.05-.35.12-.51.17.13.02.27.02.37.02.13.05.27.05.43.05.46-.14.94-.29,1.42-.36h0c.08-.02.13-.05.16-.1.32-.14.67-.29.99-.4.37-.14.75-.21,1.1-.21.48.02.94.07,1.45.02.3-.02.62.05.91.14.19-.07.38-.14.54-.24.16-.05.27-.1.43-.14.16-.05.35-.07.54-.1.46-.05.91-.05,1.34-.05,1.13.02,2.25.14,3.38.31,1.23.17,2.47.33,3.75.4.59.05,1.18.09,1.74.09s1.07,0,1.61-.09c.11-.02.27-.02.4-.02.16,0,.29.02.46.05.35.05.7.14,1.02.26.67.24,1.31.52,1.9.86.21.17.4.31.59.48.05.05.11.12.13.17.03.05.05.09.03.12,0,.02-.03.02-.05.05,0,.02-.03.02-.05.02h-.13s-.11-.02-.16-.02c-.35-.07-.7-.14-1.07-.26-.59-.17-1.21-.33-1.85-.4-.11-.02-.19-.02-.27-.02-.03,0-.11.02-.16.02-.08.02-.16.07-.21.12-.21.36-.05.74-.37,1.12-.08.07-.16.14-.19.24-.03.02-.03.05-.03.07,0,0,.03,0,.03.02h.03v.02h.24c.11-.02.24-.05.38-.07.4-.05.8-.09,1.26-.09.54,0,1.13.07,1.69.24.7.19,1.37.5,1.96.95.43.31.7.66,1.05,1.02.29.33.62.64,1.04.9.24.17.54.28.83.38.4.12.78.21,1.23.29.03.02.08.05.13.05.03.02.08.05.13.07.11.05.19.1.24.17.16.14.32.29.4.45.05.12.13.26.11.4,0,.05,0,.07-.05.12-.03,0-.05.02-.08.02h-.11c-.08-.02-.16-.05-.27-.07-.13-.05-.27-.09-.38-.14-.46-.14-.88-.31-1.29-.48-1.18-.43-2.36-.86-3.54-1.24-1.18-.31-2.33-.59-3.54-.86-.37-.07-.8-.14-1.15-.21-.13,0-.24-.02-.35-.05-.05,0-.08,0-.11.02h-.05c-.08.26-.19.31-.35.52h0v.02h.03c.05,0,.11,0,.16.02.27,0,.54.02.8.07,1.55.24,3.08.74,4.39,1.4.62.26,1.15.64,1.58,1.07.13.17.24.33.3.52.03.14-.05.31-.13.43-.08.05-.16.1-.27.12-.11.02-.27.05-.4.05-.38,0-.8-.02-1.21-.1-1.15-.17-2.33-.43-3.48-.69-1.26-.26-2.55-.45-3.86-.59-.43-.05-.88-.09-1.31-.12.13.1.21.19.29.28.08.1.16.24.19.36v.14s-.03.02-.05.05c0,0,0,.02-.05.02-.03.02-.11.02-.16.02h-.32c-.27-.02-.56-.05-.86-.07-.8-.1-1.58-.17-2.36-.21-.78-.05-1.55-.07-2.33-.09-.24,0-.48-.02-.72,0-.08,0-.13,0-.21.02-.03,0-.05.02-.05.02h0v.02c-.03.24-.11.38-.19.59h.13c.16-.02.32-.07.48-.07,1.07-.05,2.12.14,2.97.48.43.17.88.38,1.18.67.13.12.24.26.27.43.08.14.08.31.03.48,0,.07-.05.14-.13.19-.08.07-.16.14-.27.19-.21.1-.48.17-.78.19-.78.09-1.61.09-2.36.07-.88,0-1.74-.05-2.6-.02-.56.02-1.21.02-1.8.21-2.41.81-4.74.59-7.15,1.62-.43.17-.8.31-1.21.4-1.26.64-2.52,1.31-3.78,1.95.03.02.03.07.05.09.05.12.05.24,0,.38-.05.17-.19.33-.32.45-.08.05-.24.12-.37.17-.16.05-.32.1-.46.12-.32.07-.62.12-.94.19h-.05v.02l-.03.02s-.03.02,0,.02c0,.05.03.12.05.14.05.12.16.24.27.36.03.05.05.12.05.17s-.03.07-.03.1-.03.05-.05.07c0,.02-.05.05-.11.05-.03.02-.08.05-.16.05-.16.02-.29.02-.46.02-.54-.02-1.21.19-1.8.38-.8.28-1.58.62-2.36,1-.78.38-1.55.78-2.3,1.28-.29.19-.59.38-.86.62-.19.17-.37.36-.54.57,0,.02-.05.05-.05.07-.05,0-.08.05-.11.05-.11.07-.21.12-.29.19-.21.1-.43.21-.64.33-.08.05-.19.1-.24.14,0,.02-.05.05-.08.07v.07h0c.05,0,.08.02.11,0,.13.02.3,0,.46-.02,1.02-.17,2.06-.64,3.08-1.19.56-.29,1.1-.62,1.55-1,.46-.33.78-.66,1.1-1.05.03-.07.08-.14.16-.17.08-.07.16-.12.24-.17.21-.09.45-.14.67-.19.59-.14,1.21-.21,1.8-.31.64-.12,1.31-.24,1.96-.48.32-.1.56-.26.83-.43.29-.17.48-.36.67-.59.05-.05.11-.1.16-.14.08-.05.19-.07.21-.1.19-.07.38-.12.56-.12.4-.02.8,0,1.21.07.16.02.32.07.46.12.05.05.08.07.16.1,0,.02.05.05.05.1t.03.05s-.03.02-.05.05c-.03.02-.03.05-.03.05-.05.02-.05.05-.08.05-.19.12-.37.14-.59.19-.32.07-.7.14-.99.31-.05,0-.08.02-.13.07,0,0-.03.05-.05.07-.03.07-.03.12-.03.17.08.38.3.64.3,1.07v.26s.03.05.05.07h0s.03,0,.03,0c0,.02,0,0,0,0h.03s.05-.05.05-.07c.08-.05.13-.12.21-.17.13-.19.29-.36.51-.52.24-.19.54-.33.86-.43.51-.1.94-.1,1.34,0,.38.07.7.24.99.38.29.12.59.24.96.24.16,0,.37-.05.54-.12.24-.1.48-.21.7-.36,0-.02.05-.02.05-.05.05-.02.08-.02.11-.02.08-.02.13,0,.24,0,.16,0,.29.07.43.14.11.05.21.14.29.24,0,.02.03.07.05.12t-.03.05s-.03.05-.03.05c-.05.05-.11.07-.16.09-.08.02-.19.07-.27.09-.27.12-.56.21-.83.29-.32.12-.64.21-.96.31.4-.02.83-.05,1.23-.07.11,0,.35,0,.4.07.03,0,0,.02-.03.05-.03.02-.08.02-.08.02-.05.02-.08.05-.13.05-.03.02-.11.05-.16.05-.08.02-.16.05-.21.07-.24.05-.46.1-.64.12-.64.14-1.31.24-1.98.36-.94.19-1.82.4-2.73.64v.02s-.03.02-.05.02l-.03.02h.03c.05.21,0,.36-.03.57v.02h0s.03-.02.03,0h0q.05-.02.11-.07c.13-.07.27-.14.43-.21.99-.38,2.06-.52,2.95-.55.51-.02.96.05,1.31.19.16.05.32.12.43.24.11.12.16.24.19.4-.03.07-.03.17-.08.24-.08.07-.11.17-.24.24-.21.17-.43.31-.7.43-.72.36-1.55.64-2.3.86-.83.29-1.69.55-2.52.83-.56.19-1.21.38-1.74.69-2.22,1.35-4.5,1.71-6.7,3.06-.62.38-1.1.62-1.63.83-.46.19-.88.38-1.29.57-1.47.59-2.92,1.14-4.39,1.66-4.23,1.52-8.47,2.85-12.68,4.11-1.37.36-5.14,3.42-10.5,3.14-7.24-.36-6.27-1.02-5.41,8.55.16,1.76.56,3.37,1.02,4.99.46,1.59,0,5.44-1.72,5.39-.94-.02-1.42-.59-1.07-5.23.13-1.71.32-3.47.51-5.13.11-.93.19-1.81.27-2.64.35-3.9,1.21-4.47-3-3.59-1.66.36-3,.26-3.35,1.02-.13.33-.19,1.12-.08,1.71.48,2.5-1.07,3.56-.94.76.03-.28.11-.83.35-1.38.78-1.92.88-1.26-1.9-1.38-3-.1-5.97.31-5.76,3.21.13,1.47.8,2.8.56,4.54-.27,1.88-1.1,3.23-1.34.26-.05-.69.38-2.78.54-4.66.27-3.28-.32-2.38-3.46-2.16-4.15.29-3.24.64-3.4,4.61-.16,4.51.19,9.1-.51,13.28-.46,2.66-.46,4.06-2.63,4.66-1.66.45-1.85-2.11-.16-5.51,1.18-2.4,5.39-16.53,1.55-16.82-3.3-.26-3.91-2.57-4.1,1.71-.05,1.35.16,4.32-.32,5.63-.21.57-.54.86-.8.86-.83,0-.8-1.35-.35-2.8.38-1.21,1.13-2.47,1.15-3.37.03-3.63-.72-3.44-2.36-2.85-1.31.48-2.92-.14-4.64-.19-1.93-.07-2.84-.93-2.25,1.07,1.82,4.68-4.48,3.71-3,.26.94-2.4,4.02-2.02-.43-2.78-2.95-.5-6.19-1.07-7.61.55-1.58,1.83-.16,8.89-.27,11.4-.13,3.3.83,6.01-1.45,5.7-1.85-.29-1.23-2.66-.21-5.75.99-2.95.7-7.41.83-10.43.08-2.45-3.64-3.35-5.84-3.18-1.98.12-2.25-4.04-8.92-2.28-.29.07-.54.19-.8.29-.03,0-.05.02-.08.05-.08.02-.16.07-.21.09-.05.02-.13.02-.21.02-.11,0-.19-.02-.29-.05-.11-.05-.21-.07-.35-.14-.37-.17-.75-.38-1.1-.59-.43-.21-.83-.36-1.26-.4-.35-.02-.7.02-1.02.07-.32.05-.67.12-1.02.14-.38.02-.8-.05-1.23-.19-.51-.19-1.02-.43-1.58-.55-.46-.1-.94-.38-1.34-.67-.51-.33-1.02-.74-1.45-1.16-.19-.21-.4-.43-.51-.64-.13-.19-.24-.38-.29-.57-.03-.19,0-.33.08-.45.13-.14.38-.21.56-.24.13-.02.32.02.48.07.21.05.4.14.62.21.4.17.78.33,1.21.5h.03s.03.02.03,0h.03s.03-.02.03-.02c.03-.07,0-.14-.03-.21-.08-.19-.16-.38-.24-.59,0-.09-.03-.19,0-.24,0-.05,0-.07.03-.09.03-.02.05-.02.08-.05h.11c.08.02.16.05.21.07.24.1.43.24.62.36.72.45,1.58.69,2.3.88,1.1.26,2.17.45,3.22.62,1.07.14,2.12.21,3.14.21.4-.02.83-.05,1.18-.12.29-.05.59-.12.8-.26.03,0,.08-.02.11-.02h.51c.29.02.59.05.91.07h.32c.05,0,.08,0,.11-.02v-.05h0c-1.39-.19-2.79-.43-4.21-.67-.94-.19-1.9-.36-2.87-.55-.54.05-1.02.17-1.45.38-.08.05-.13.07-.24.07-.13,0-.24,0-.35-.02-.29-.05-.62-.14-.91-.24-.75-.31-1.53-.69-2.3-1-.59-.26-1.21-.52-1.82-.74-.48-.12-.99-.24-1.53-.38h-.29c-.38-.02-.67.05-.99.17-.03.05-.11.07-.21.05-.08,0-.19,0-.29-.02-.24-.07-.46-.19-.67-.31-.46-.21-.86-.5-1.26-.83-5.79-1.61-11.55-3.4-17.31-5.34-2.09-.71-4.18-1.28-6.3-2.04-.51-.17-1.1-.43-1.66-.69-.43-.21-.86-.43-1.31-.71-.24-.17-.59-.4-.78-.69-.16-.29-.11-.48,0-.64h.21c.19,0,.38.05.54.1.59.12,1.21.29,1.8.43,1.77.43,3.56.88,5.33,1.35,2.49.59,5.01,1.21,7.48,1.76-4.26-1.33-8.47-2.38-12.78-4.16-1.21-.52-2.33-.76-3.51-1.16-.19-.05-.4-.14-.59-.24-.19-.1-.35-.21-.51-.36-.13-.14-.21-.28-.29-.48-.13-.24-.21-.48-.27-.69,0-.1.03-.14.05-.19.05-.07.13-.07.19-.07.24-.05.54.02.8.1.75.19,1.55.43,2.33.71.59.19,1.13.43,1.69.57h.08v-.02h0l-.03-.02s-.05-.02-.08-.05c-.32-.19-.62-.33-.91-.5-.21-.12-.43-.24-.62-.36-.08-.05-.13-.09-.19-.14-.03-.02-.05-.07-.08-.12-.03-.07.03-.12.05-.14.11-.02.21-.02.29-.05.56,0,1.21.05,1.8.19,1.74.29,3.51.67,5.31,1.09-.05-.05-.11-.1-.16-.12-.27-.29-.54-.45-.83-.52-.21-.07-.46-.05-.67.02-.21,0-.4.07-.64.07-.27-.02-.56-.09-.83-.31-.35-.24-.67-.52-1.1-.71-.29-.14-.64-.52-.88-.83-.4-.45-.72-.95-.99-1.45-.16-.26-.29-.52-.38-.78-.11-.21-.19-.45-.21-.66-.03-.17-.03-.36.05-.5.08-.17.19-.21.35-.24.11,0,.19.05.32.12.13.07.29.19.43.29.27.21.51.45.78.64h.03s.03.02.03,0h.03v-.02c.03-.07,0-.17,0-.24-.08-.21-.13-.45-.16-.69-.03-.1-.05-.21-.05-.28,0-.05,0-.07.03-.1.03-.02.03-.05.05-.02.03-.02.05,0,.08,0,.05.02.11.05.13.07.19.14.29.29.46.45.43.52.99.83,1.53,1.12.7.38,1.42.67,2.14.9.7.19,1.39.33,2.06.36.27.02.51.02.78-.05.19-.05.35-.12.51-.29,0,0,.03,0,.05-.02h.08c.08,0,.16.02.24.02.21.05.4.09.59.12.08.02.16.02.24.02h.05v-.07s0-.05-.03-.05c-.03-.05-.05-.1-.08-.12-.11-.12-.27-.24-.38-.33-.86-.69-1.85-1-2.73-1.19-.48-.07-.94-.12-1.39-.07-.38.05-.7.17-1.02.38-.03.05-.08.1-.16.1-.05,0-.16-.02-.24-.05-.19-.07-.38-.21-.56-.33-.54-.4-1.02-.86-1.55-1.28-.56-.45-1.13-.9-1.69-1.24-.27-.12-.54-.24-.78-.26-.24-.02-.43.02-.62.14-.05.02-.11.05-.16.05-.05-.02-.13-.05-.21-.07-.16-.09-.32-.24-.43-.38-.38-.36-.7-.81-1.02-1.28-.13-.19-.24-.4-.32-.62-.05-.1-.08-.19-.11-.26-.03-.07-.05-.12-.05-.19v-.07s0-.05.03-.05.03-.02.03-.05c.03.02.05.02.05.02.16.05.35.21.51.33.27.24.62.5.86.59.03.02.08.02.11.02.03-.02.05-.02.05-.05.05-.05.08-.12.08-.19,0-.57-.16-1.16-.11-1.71.03-.12.03-.26.03-.38v-.12s-.03-.02-.03-.02l-.03-.02h-.08s-.08.05-.13.1c-.16.07-.32.14-.48.14-.29.02-.54-.07-.8-.31-.4-.31-.78-.78-1.1-1.31-.24-.47-.51-.97-.72-1.5-.21-.43-.43-.88-.72-1.28-.16-.17-.32-.31-.48-.43-.21-.14-.4-.19-.56-.21q-.05-.02-.08-.05t-.08-.05c-.08-.07-.13-.14-.21-.24-.11-.21-.21-.43-.29-.67-.11-.21-.21-.45-.24-.67-.03-.07-.05-.17-.05-.21,0-.02,0-.05.03-.07,0-.02.03-.02.05-.02.05,0,.11.02.13.05.08.05.16.09.24.14.24.14.48.31.7.5.64.45,1.26.93,1.93,1.4.62.43,1.21.88,1.82,1.31.19.14.4.26.59.36.05.05.11.07.16.07h.05v-.02c0-.31.03-.52.03-.81h0v-.02s-.05,0-.08-.02c-.13-.02-.27-.07-.38-.14-.86-.47-1.74-1.38-2.44-2.23-.43-.5-.8-1.09-1.1-1.66-.13-.26-.24-.55-.29-.83-.11-.28-.13-.52-.13-.76,0-.09.03-.19.11-.24.03-.07.08-.12.16-.12.16-.05.38.05.62.14.62.24,1.26.69,1.9,1.14.67.48,1.39.97,2.06,1.45.46.28.99.67,1.42.74,1.88.31,3.72,2.07,5.57,2.23.64.05,1.13.26,1.82.67.59.38,1.23.81,1.85,1.07.54.26,1.15.36,1.72.55.32.12.67.24.99.38.13.05.24.09.35.17.03.02.05.05.11.07t.03.05v.02s.03.07,0,.12c0,.02-.03.05-.03.07-.08.02-.13.07-.21.07-.21,0-.51-.1-.75-.17-.78-.26-1.58-.64-2.38-.97-.88-.38-1.74-.74-2.63-1-.29-.1-.59-.17-.91-.19-.11,0-.21,0-.32.02-.08.02-.13.07-.19.14v.02s-.03.02-.03.05c0,0,.03,0,.03.02v.02c.08.07.16.12.21.17.29.21.59.36.83.5.88.45,1.74.86,2.65,1.26.91.43,1.82.83,2.79,1.28.32.17.64.31.97.47.13.07.37.17.51.28.03.07.11.12.19.17.08,0,.11,0,.13-.02.13-.02.19-.14.27-.21.03-.02.05-.05.05-.07.05-.02.11-.02.16-.02.13,0,.3.02.46.05.48.07.96.21,1.47.36.83.26,1.74.55,2.57.83-.91-.45-1.77-1.02-2.65-1.54-.35-.21-.7-.48-1.05-.78-.29-.26-.59-.57-.83-.9-.08-.07-.13-.17-.19-.26-.03-.05-.03-.07,0-.07h.03l.03-.02q.05.02.08.05c.05.02.08.02.11.05.11.05.19.1.27.17.29.19.54.4.83.62,1.66,1.21,3.46,1.62,5.09,2.95h-.19c.05.12.03.21-.03.26-.03,0-.03.02-.05.02.08.02.19.07.29.1.54.19,1.05.4,1.55.59-.19-.21-.46-.45-.67-.69-.05-.07-.13-.17-.21-.26-.03-.07-.05-.14-.05-.19.03-.02.03-.05.05-.05h.08c.05,0,.11,0,.16.02.05.02.11.02.19.05.19.1.4.19.62.29-.16-.17-.35-.36-.54-.52-.13-.14-.27-.29-.4-.4h0s-.03,0-.08-.02t-.08-.02c-.05-.02-.11-.05-.16-.1-.32-.21-.62-.52-.83-.81-.03-.02-.05-.05-.08-.07-.03-.02-.08-.07-.13-.09-.4-.26-.8-.48-1.23-.64-.59-.24-1.13-.43-1.72-.59-.08-.02-.16-.05-.21-.07-.08-.02-.16-.07-.24-.12-.13-.07-.27-.19-.43-.31-.27-.19-.48-.45-.72-.74-.16-.17-.35-.43-.4-.64-.03-.07-.03-.14,0-.19,0-.02.03-.02.05-.02-.7-.5-1.39-1.05-2.12-1.54-.32-.26-.62-.55-.91-.86-.24-.31-.51-.62-.67-.95-.08-.1-.16-.21-.16-.31v-.07h.03s.05.02.05.02c.03,0,.05.02.08.02,0,.02,0,.05.05.07.08.05.16.12.24.19.21.21.48.45.72.67,1.45,1.33,3.11,1.9,4.56,3.33h-.16v.1c.48.19.91.43,1.39.64.43.19.83.38,1.26.57-.48-.5-.91-1.05-1.37-1.62-.46-.59-.94-1.12-1.53-1.59-.35-.31-.75-.55-1.13-.76-.51-.29-1.04-.52-1.53-.71-.08-.02-.13-.05-.19-.1-.08-.02-.13-.07-.21-.12-.13-.1-.27-.21-.38-.31-.24-.24-.46-.5-.62-.78-.13-.19-.29-.45-.32-.66-.03-.07-.03-.14.03-.17.03-.02.05-.05.08-.05.05,0,.08.02.11.02.11.05.24.1.32.17.21.1.4.19.59.31.59.33,1.15.66,1.72,1,1.58.95,3.14,1.9,4.72,2.78.08.05.16.09.21.12-.05-.17-.03-.31.05-.43.08-.1.21-.14.32-.14.16-.02.35,0,.54.05-.43-.31-.83-.59-1.21-.9-.78-.59-1.58-1.28-2.25-2.09-.24-.26-.46-.57-.56-.88-.13-.26-.11-.45,0-.62.08-.07.19-.12.32-.12s.32.05.48.07c.51.17,1.07.38,1.63.62h0Zm122.83,32.14c.27-.14.56-.29.8-.45.13-.09.27-.19.4-.28.08-.09.16-.17.21-.26.03,0,.03-.02.03-.02v-.02h-.03s0-.02-.03,0c-.05,0-.16.02-.24.05-.32.07-.67.19-.99.31-.83.31-1.69.64-2.55.97.35-.07.67-.12,1.02-.19.46-.07,1.02-.14,1.37-.09h0Zm-3.56-4.37c2.25-1.14-.24-.21-2.33.59.35-.02.72,0,1.07-.02.4-.19.86-.38,1.26-.57h0Zm-2.87,1.28c.05-.4-2.2.05-2.92.9-.35.38,2.87-.88,2.92-.9h0Zm19.59-6.98s-.05.05-.05.07c.78.14,1.55-.33,2.36-.26.13,0,.29.02.43.02.03,0,.08-.02.13-.02h.03l.03-.02h.03s0-.02-.03-.02c.03-.02,0-.02,0-.05-.03-.05-.08-.07-.13-.1-.16-.07-.35-.14-.54-.19-.13-.05-.35-.09-.54-.07-.4.07-.8.07-1.23.14-.08.02-.19.05-.27.07-.08.02-.13.05-.21.09-.03.02-.05.05-.05.07s0,.02-.03.07c.03.05.05.12.08.19h0Zm-2.47-.05c.16.05.38.07.56.07h.19s.03,0,.05-.02v-.05s-.03-.02-.05-.02c-.05-.05-.11-.1-.19-.12-.11-.07-.32-.14-.48-.14-.05,0-.08,0-.13.02v.02l-.03.02s0,.07.03.09c0,.05,0,.1.05.12h0Zm-131.95.17c.08-.05.16-.09.29-.09.27-.07.62-.05.91.02.32.05.62.12.91.21.03-.21.08-.43.3-.62.08-.07.16-.14.24-.24v-.09s-.03,0-.03-.02c-.03,0-.05-.02-.05-.02,0-.02-.03-.02-.05-.02-.03-.02-.05-.02-.08-.02-.05-.05-.11-.05-.19-.05-.21-.05-.38-.07-.56-.1-.59-.1-1.21-.21-1.8-.38-.19-.07-.38-.12-.56-.17-.91.05-1.8.24-2.73.31.05.02.08.05.13.07.56.19,1.07.48,1.61.76.05,0,.11.02.16.07.51.12,1.02.26,1.5.38h0Zm-3.83-1.24s-.08,0-.13.02h-1.02c.46.12.91.21,1.42.33-.08-.07-.13-.14-.19-.21-.03-.05-.05-.09-.08-.14h0Zm-6.7-.62c-.56.05-1.1.17-1.61.4-.03,0-.05.02-.08.02,3.99.93,8.01,2,12.03,3.04-.8-.47-1.61-1-2.39-1.59-.11-.09-.21-.17-.35-.29-.8-.17-1.61-.33-2.47-.47-1.69-.31-3.43-.69-5.14-1.12h0Zm-.56-6.18c-2.55-.57,1.82,1.21,3.46,1.81.03,0,.05.02.08,0t.03-.02c-.05-.05-.08-.09-.13-.14-.24-.26-.48-.52-.7-.76-.91-.29-1.79-.57-2.73-.88h0Zm9.54,2.21c-.7-.24-1.53-.38-2.28-.52.67.36,1.34.69,1.98,1,.7.12,1.31.19,1.47.1.03,0-.35-.17-.62-.29-.13-.05-.24-.09-.38-.17-.03,0-.05-.02-.13-.07l-.03-.02s-.03,0-.03-.02h0Zm-23.98-10.43s.05-.05.08-.05c-.59-.97-1.31-1.21-1.93-2.09-.11-.17-.21-.33-.37-.5,0-.02-.05-.07-.08-.12t-.05-.02v-.02s-.03,0-.03.02v.02s0,.05,0,.05c.03.1.08.21.11.31.11.26.24.55.4.81.11.24.27.47.43.64.32.38.67.76,1.02,1.12.08.07.19.14.24.19.05.05.11.07.16.07.03,0,.05-.02.05-.02,0-.05.03-.07.03-.09,0-.07,0-.19-.05-.31h0Zm2.04,2.49c-.13-.21-.29-.45-.48-.67-.03-.05-.08-.1-.13-.14l-.03-.02h-.05v.05s.03.07.05.09c.03.12.08.21.13.33.11.21.24.5.4.67,0,.02.05.05.08.07h.03s0-.02.03-.02v-.12c0-.07-.03-.14-.05-.24h.03Zm151.75-1.14c-.05.05-.11.07-.16.12h.03s.03.02.05.02h.05c.46-.21.88-.43,1.31-.64-.27.07-.51.17-.75.26-.16.07-.35.14-.48.21-.05,0-.05.02-.05.02h0Zm33.42,1.54s-.08,0-.13.02c.96.74,2.33.97,3.35,1.71.16.14.32.26.48.38.08.05.11.07.16.1.03.02.05.02.08.05h.05s.03.02.03.02t.05-.02v-.02c-.03-.07-.05-.14-.08-.19-.08-.19-.24-.38-.43-.55-.16-.19-.38-.36-.62-.5-.59-.31-1.15-.64-1.8-.93-.16-.07-.32-.14-.43-.19-.11-.05-.27-.07-.38-.1h-.19s-.05,0-.08.02c-.08.05-.08.09-.08.19h0Zm-3.59-1.97c.27.17.51.33.8.48.08.05.13.07.21.12.03,0,.05.02.08.02.03.02.05.02.08,0t0,0s.03,0,0,0c.03-.02.03-.05.03-.07-.03-.09-.11-.17-.16-.21-.19-.19-.4-.38-.64-.5-.05,0-.11-.02-.16-.05h-.11c-.05.02-.08.05-.08.07-.05.05-.05.07-.05.14h0Zm-25.43,9.36c-1.15.55-2.28,1.07-3.46,1.62.94-.26,1.88-.5,2.81-.78.35-.12.72-.24,1.1-.38.16-.09.3-.17.48-.26.03,0,.05-.02.08-.02.13-.07.21-.14.29-.24,0,0,0-.02.03-.02,0,0,0-.02-.03-.02,0-.02-.03,0,0-.02h-.03c-.08,0-.19-.02-.29,0-.32.02-.67.07-.99.14Z"/>
      <path class="cls-70" d="m236.79,346.95c-.11-.02-.11.02-.21.02-.11.26-.54,1.38.21,1.4.86.02.24-1.12,0-1.43h0Zm-44.08-15.44c-.11.31.78.17,1.93.33.99.14,2.22.64,2.63.71,1.8.4-.56-.69-1.15-.64-.59-.17-2.65-.71-3.4-.4h0Zm30.36,2.78c.16.05.37-.09.54-.17.05-.02.11-.05.16-.07.21-.09.43-.21.64-.29.05,0,.05.02.08,0,.08-.02.24-.02.38-.05.05,0,.16-.05.24-.07.03,0,.05.02.11.02.27-.05.64-.02.96-.02.03-.17-.16-.17-.27-.19-.11-.02-.24.05-.37.05-.16,0-.35,0-.54.05-.05,0-.08-.02-.11-.02s-.08.05-.08.07c-.08,0-.13-.02-.19-.02-.27.05-.62.14-.91.24-.13.05-.3.1-.37.17-.03,0-.16.09-.16.09-.05.07-.08.12-.11.21h0Zm-.75,5.56c-.05,0-.19,1.21-.08,1.33.27-.07.16-1.19.08-1.33h0Zm-13.91-5.87c-1.04-.57-2.12.76-2.2-.07.27-.17.56-.31.88-.31h0c.29,0,1.07-.17,1.23.17.03,0,.21.21.08.21h0Zm.96.26c-.11-.43,1.26-.64,1.37-.17-.29-.19-1.23-.14-1.37.17h0Zm-1.18,5.92c0,.59-.13,3.16-.51,2.19-.27-.81.59-3.42.51-2.19h0Zm-21.41,5.87c0,.31-.19,1.07-.46.55-.16-.28.46-.97.46-.55h0Zm-.21,2.19c0-.4,0-.74-.27-.97-.35-.31-.37,3.3.35,2.64.35-.31-.08-1.28-.08-1.66h0Zm5.44-16.58c-.24-.21-1.66.21-1.61.33.38.02,1.39,0,1.61-.33h0Zm5.9,6.25c-.94.05-.59-1.83-.38-2.28.03-.1.75-1,.64-.78-.38.81-.62.95-.03,2.07.32.57.19.95-.24,1h0Zm-14.23-7.27c-1.88,0-2.97.59-3.99-1.28.54.21.75.67,1.42.67.29,0,.59-.24.88.02.19.17-.19.17-.19.33,0,.09,1.13.05,1.26.05.24,0,.75.21.62.21h0Zm28.03,23.71c-.13.14-.05.24.21.29.08-.12,0-.21-.21-.29h0Zm0,.83c-.11,0-.11.05-.21.05-.11.26-.54,1.38.21,1.4.86.02.24-1.14,0-1.45Z"/>
    </g>
  </g>
  <g>
    <path class="cls-93" d="m230.67,316.32c.23.05.45.13.65.22.11.03.22.1.31.2.5-.31.98-.6,1.45-.93.27-.17.52-.33.79-.5-.57.09-1.15.18-1.74.35-.25.09-.54.19-.82.31-.2.14-.43.24-.66.36h0Zm-107.88-20.56c12.86,13.26,67.47,17.58,99.02,4.19.43-.24.86-.48,1.29-.72.34-.17.66-.33,1-.43.18-.07.43-.14.57-.07.13.07.09.24,0,.44,0,0-.02.02-.05.05-.05.05-.09.07-.11.12-.14.1-.27.19-.39.29-.5.36-.95.69-1.43,1.03-.41.29-.79.57-1.2.86,1.52-.93,3.02-1.86,4.56-2.77,1.75-1.05,3.45-2.25,5.22-3.27.48-.26.93-.52,1.38-.74.39-.17.75-.33,1.11-.45.2-.07.48-.14.66-.07.14.05.09.24.02.41-.02.02-.05.05-.05.07-.05.02-.11.07-.14.1-.14.12-.27.22-.43.31-.5.36-1,.67-1.5,1.03-1.45,1.03-2.95,2.03-4.38,3.06-1.5,1.05-2.97,2.08-4.5,3.16.04-.02.09-.05.11-.05.14-.05.27-.12.41-.17,2.79-1.84,5.56-3.71,8.4-5.28,1.02-.52,1.93-1.17,2.93-1.77.16-.12.32-.19.48-.26.14-.07.27-.09.41-.12.11,0,.2.03.32.08.09.1.18.2.27.29,0,.05-.02.1-.05.17-.02.07-.09.14-.14.19-.23.19-.45.38-.68.53-.61.45-1.27.86-1.93,1.24-.23.14-.5.29-.75.43.02.02.02.05.02.07.05.02.07.05.07.07.04,0,.05-.02.07-.02.2-.1.39-.17.54-.21.04,0,.09-.02.16-.02,0,.02.05,0,.07.02.02.02,0,.1-.07.15-.05.07-.14.17-.18.24-.46.43-.96.82-1.41,1.18-.14.07-.23.14-.32.24-.41.38-.82.77-1.25,1.15-.77.7-1.55,1.42-2.34,2.14,1.41-1,2.66-2.16,4.16-2.99.45-.24.73-.55,1.16-.86.05-.05.11-.1.18-.14.07,0,.14,0,.18.03.07.03.11.07.13.15.09.1.13.2.2.34.02.02.02.07.02.15-.02.05-.02.1-.07.14-.05.12-.11.24-.21.31-.2.24-.46.46-.73.65-.16.14-.39.26-.52.41,0,.02-.02.02-.02.02,0,0,.02.02,0,.02h.05c.11-.02.2-.07.34-.09.09-.02.16-.07.23-.05,0-.02.02,0,.07,0,0,.02.02.02.02.05h0c1.22-.62,2.43-1.24,3.61-1.93.39-.19.77-.43,1.18-.64.05-.02.05-.05.07-.07.11-.07.23-.14.34-.19.09-.07.2-.12.29-.14.11-.02.25-.07.36-.07.16-.02.32-.05.45-.02.47-.02.95,0,1.44.04.5.08,1.06.06,1.6-.03.47-.09.95-.23,1.43-.4.48-.14.97-.28,1.47-.37.54-.09,1.11-.11,1.65-.03.72.08,1.4.23,2.14.26.56.03,1.15.23,1.69.48.58.27,1.17.62,1.69,1.01.18.15.4.32.54.52.11.12.18.29.18.46,0,.15-.14.27-.27.34-.25.09-.57.12-.88.14-.18.02-.41-.03-.59-.08-.27-.05-.54-.13-.83-.18-.5-.13-.99-.23-1.49-.31,0-.02-.05,0-.07,0h-.02s-.04.02-.04.02l-.02.02s-.02.1-.02.15c.04.17.09.32.11.49,0,.07,0,.15-.02.19-.02.05-.05.05-.09.07,0,.02-.07.05-.09.05-.05.02-.11.02-.2.02-.09,0-.18-.03-.23-.05-.29-.05-.52-.13-.77-.2-.88-.3-1.92-.33-2.87-.32-1.4.08-2.8.24-4.18.52-1.36.33-2.74.72-4.07,1.24-.16.05-.3.12-.43.17.11.03.23.03.32.03.11.05.23.05.36.05.39-.14.79-.28,1.2-.35h0c.07-.02.11-.05.14-.1.27-.14.57-.29.84-.4.32-.14.63-.21.93-.21.41.03.79.08,1.22.04.25-.02.52.05.77.15.16-.07.32-.14.45-.24.14-.05.23-.09.36-.14.14-.05.29-.07.45-.09.38-.05.77-.04,1.13-.04.95.03,1.9.17,2.84.34,1.04.18,2.08.36,3.16.44.5.05.99.11,1.47.11.47,0,.9,0,1.36-.08.09-.02.23-.02.34-.02.14,0,.25.03.38.05.29.05.59.15.86.28.56.25,1.1.55,1.6.89.18.17.34.32.49.49.04.05.09.12.11.17.02.05.04.1.02.12,0,.02-.02.02-.05.05,0,.02-.02.02-.05.02-.05,0-.07,0-.11,0-.02,0-.09-.03-.14-.03-.29-.08-.59-.15-.9-.28-.5-.18-1.01-.35-1.56-.43-.09-.03-.16-.03-.23-.03-.02,0-.09.02-.14.02-.07.02-.14.07-.18.12-.18.36-.05.75-.32,1.14-.07.07-.14.14-.16.24-.02.02-.02.05-.02.07,0,0,.02,0,.02.02h.02v.02s.07,0,.07,0c.04,0,.07,0,.14,0,.09-.02.2-.05.32-.07.34-.05.68-.09,1.06-.09.45,0,.95.08,1.42.26.59.2,1.15.52,1.64.99.36.32.58.69.87,1.05.25.34.51.66.87.93.2.17.45.3.7.4.34.12.65.23,1.04.3.02.02.07.05.11.05.02.02.07.05.11.07.09.05.16.1.2.17.13.15.27.29.34.46.04.12.11.27.09.41,0,.05,0,.07-.05.12-.02,0-.05.02-.07.02,0,0-.04,0-.09,0-.07-.03-.14-.05-.23-.08-.11-.05-.22-.1-.31-.15-.38-.15-.74-.32-1.08-.5-.99-.45-1.98-.89-2.97-1.29-.99-.33-1.96-.63-2.97-.9-.32-.08-.68-.15-.97-.23-.11,0-.2-.03-.29-.05-.05,0-.07,0-.09.02h-.05c-.07.27-.16.31-.3.53h0v.02s.02,0,.02,0c.04,0,.09,0,.14.03.23,0,.45.03.68.08,1.31.26,2.59.78,3.69,1.47.52.27.97.66,1.32,1.11.11.17.2.34.24.54.02.15-.05.32-.12.44-.07.05-.14.1-.23.12-.09.02-.23.05-.34.05-.32,0-.68-.03-1.02-.11-.97-.18-1.96-.46-2.93-.73-1.06-.28-2.14-.48-3.25-.64-.36-.05-.74-.1-1.11-.13.11.1.18.2.25.29.07.1.13.24.16.37,0,.05,0,.1,0,.15t-.05.05s0,.02-.05.02c-.02.02-.09.02-.14.02-.09,0-.16,0-.27,0-.23-.03-.47-.05-.72-.08-.68-.1-1.33-.18-1.99-.24-.65-.06-1.31-.09-1.96-.12-.2,0-.41-.03-.61,0-.07,0-.11,0-.18.02-.02,0-.05.02-.05.02h0v.02c-.02.24-.09.39-.16.61h.02s.07,0,.09,0c.14-.02.27-.07.41-.07.9-.04,1.78.16,2.5.51.36.17.74.4.99.69.11.12.2.27.22.44.07.15.07.32.02.49,0,.07-.05.15-.11.19-.07.07-.14.14-.23.19-.18.1-.41.17-.66.19-.66.09-1.36.08-1.99.05-.75,0-1.47-.06-2.19-.05-.47.02-1.02.01-1.52.2-2.04.8-4,.57-6.04,1.59-.36.17-.68.31-1.02.4-1.07.64-2.13,1.31-3.2,1.96.02.02.02.07.04.1.04.12.04.24,0,.39-.05.17-.16.34-.27.46-.07.05-.2.12-.32.17-.14.05-.27.09-.39.12-.27.07-.52.12-.79.19t-.05,0v.02l-.02.02s-.02.02,0,.02c0,.05.02.12.04.15.04.12.13.24.22.37.02.05.04.12.04.17,0,.05-.02.07-.02.1,0,.02-.02.05-.05.07,0,.02-.05.05-.09.05-.02.02-.07.05-.14.05-.14.02-.25.02-.38.02-.45-.03-1.02.18-1.52.37-.68.28-1.34.62-2,1-.66.38-1.32.79-1.95,1.29-.25.19-.5.38-.73.62-.16.17-.32.36-.46.58,0,.02-.05.05-.05.07-.05,0-.07.05-.09.05-.09.07-.18.12-.25.19-.18.1-.36.21-.54.33-.07.05-.16.1-.2.14,0,.02-.05.05-.07.07v.02s0,.02,0,.02v.02h0s.07.03.09,0c.11.03.25,0,.38-.02.86-.16,1.74-.64,2.61-1.19.48-.29.93-.62,1.32-1.01.39-.34.66-.67.93-1.06.02-.07.07-.14.14-.17.07-.07.14-.12.2-.17.18-.09.38-.14.57-.19.5-.14,1.02-.21,1.52-.3.54-.12,1.11-.23,1.65-.47.27-.09.48-.26.7-.43.25-.17.41-.36.57-.6.05-.05.09-.1.14-.14.07-.05.16-.07.18-.09.16-.07.32-.12.48-.12.34-.02.68,0,1.02.08.14.03.27.08.38.13.04.05.07.07.14.1,0,.02.04.05.04.1t.02.05s-.02.02-.05.05c-.02.02-.02.05-.02.05-.05.02-.05.05-.07.05-.16.12-.32.14-.5.19-.27.07-.59.14-.84.31-.05,0-.07.02-.11.07,0,0-.02.05-.05.07-.02.07-.02.12-.02.17.07.39.24.66.24,1.09,0,.1,0,.19,0,.27.02.02.02.05.04.07h0s.02,0,.02,0c0,.02,0,0,0,0h.02s.05-.05.05-.07c.07-.05.11-.12.18-.17.11-.19.25-.36.43-.53.2-.19.45-.33.73-.43.43-.09.79-.09,1.13.01.32.08.59.25.83.4.25.12.5.25.81.25.14,0,.32-.05.45-.12.2-.1.41-.21.59-.36,0-.02.05-.02.05-.05.05-.02.07-.02.09-.02.07-.02.11,0,.2,0,.14,0,.25.08.36.15.09.05.18.15.25.25,0,.02.02.07.04.12t-.02.05s-.02.05-.02.05c-.05.05-.09.07-.14.1-.07.02-.16.07-.23.09-.23.12-.48.21-.7.28-.27.12-.54.21-.82.31.34-.02.7-.04,1.04-.06.09,0,.29,0,.34.08.02,0,0,.02-.02.05-.02.02-.07.02-.07.02-.05.02-.07.05-.11.05-.02.02-.09.05-.14.05-.07.02-.14.05-.18.07-.2.05-.38.09-.54.12-.54.14-1.11.23-1.67.35-.79.19-1.54.4-2.31.63v.02s-.02.02-.05.02l-.02.02h.02c.04.22,0,.36-.03.58v.02h0s.02-.02.02,0h0s.05-.02.09-.07c.11-.07.23-.14.36-.21.84-.38,1.74-.52,2.49-.53.43-.02.81.06,1.11.21.14.05.27.12.36.25.09.12.13.24.15.41-.02.07-.02.17-.07.24-.07.07-.09.17-.21.24-.18.17-.36.31-.59.43-.61.36-1.32.64-1.95.85-.7.28-1.43.54-2.13.83-.48.19-1.02.38-1.47.69-1.89,1.36-3.81,1.71-5.67,3.07-.52.38-.93.62-1.38.84-.39.19-.75.38-1.09.57-1.25.59-2.47,1.14-3.72,1.66-3.58,1.52-7.16,2.84-10.72,4.09-1.15.35-4.36,3.45-8.88,3.11-6.1-.43-5.28-1.1-4.63,8.69.12,1.8.45,3.45.82,5.1.37,1.63-.04,5.56-1.49,5.49-.79-.03-1.19-.62-.86-5.35.13-1.75.3-3.54.47-5.24.1-.95.17-1.84.25-2.69.32-3.98,1.05-4.55-2.5-3.69-1.4.35-2.53.24-2.83,1.01-.12.34-.17,1.14-.08,1.75.39,2.55-.93,3.63-.8.77.02-.29.1-.85.3-1.4.67-1.96.75-1.28-1.59-1.42-2.53-.12-5.04.26-4.88,3.23.1,1.51.66,2.87.44,4.64-.24,1.92-.95,3.29-1.13.26-.04-.7.34-2.84.49-4.75.25-3.35-.25-2.43-2.9-2.24-3.5.26-2.74.63-2.9,4.68-.17,4.61.09,9.3-.53,13.56-.4,2.71-.42,4.15-2.25,4.73-1.4.45-1.54-2.18-.09-5.63,1.01-2.44,4.67-16.84,1.44-17.17-2.78-.29-3.28-2.65-3.47,1.71-.06,1.38.1,4.42-.31,5.75-.19.58-.46.87-.68.87-.7,0-.67-1.39-.27-2.87.33-1.23.97-2.51,1-3.44.05-3.71-.58-3.52-1.97-2.93-1.11.47-2.46-.17-3.91-.23-1.63-.09-2.39-.97-1.91,1.07,1.5,4.8-3.8,3.75-2.53.24.81-2.44,3.4-2.03-.34-2.84-2.48-.53-5.21-1.14-6.42.49-1.35,1.86-.2,9.07-.31,11.65-.14,3.37.65,6.15-1.26,5.81-1.56-.31-1.02-2.73-.14-5.87.86-3,.64-7.57.78-10.65.09-2.5-3.05-3.45-4.9-3.3-1.67.1-1.87-4.14-7.5-2.41-.25.07-.45.19-.68.28-.02,0-.05.02-.07.05-.07.02-.14.07-.18.1-.05.02-.11.02-.18.02-.09,0-.16-.03-.25-.05-.09-.05-.18-.07-.29-.15-.31-.17-.63-.39-.92-.62-.36-.22-.7-.37-1.06-.42-.29-.03-.59.02-.86.06-.27.05-.57.12-.86.14-.32.02-.68-.06-1.04-.2-.43-.2-.85-.45-1.33-.57-.38-.1-.79-.4-1.12-.69-.43-.34-.85-.76-1.21-1.2-.16-.22-.34-.44-.42-.66-.11-.2-.2-.39-.24-.59-.02-.19,0-.34.07-.46.11-.14.32-.22.48-.24.11-.02.27.03.41.08.18.05.34.15.52.22.34.17.65.35,1.01.52h.02s.02.02.02,0h.02s.02-.02.02-.02c.02-.07,0-.15-.02-.22-.07-.19-.13-.39-.2-.61,0-.1-.02-.19,0-.24,0-.05,0-.07.02-.1.02-.02.05-.02.07-.05.05,0,.07,0,.09,0,.07.03.14.05.18.07.2.1.36.25.52.37.61.47,1.33.72,1.94.92.92.28,1.83.48,2.71.66.9.15,1.78.24,2.64.25.34-.02.7-.04.99-.11.25-.05.5-.12.68-.26.02,0,.07-.02.09-.02.05,0,.07,0,.11,0,.09,0,.18,0,.32,0,.25.03.5.05.77.08.09,0,.18,0,.27,0,.05,0,.07,0,.09-.02v-.02s0,0,0-.02h0c-1.17-.21-2.35-.46-3.54-.72-.79-.2-1.6-.38-2.41-.58-.45.04-.86.16-1.22.38-.07.05-.11.07-.2.07-.11,0-.2,0-.29-.03-.25-.05-.52-.15-.77-.25-.63-.32-1.28-.72-1.93-1.04-.49-.27-1.01-.54-1.53-.77-.41-.13-.83-.25-1.28-.4-.09,0-.18,0-.25,0-.32-.03-.57.04-.84.16-.02.05-.09.07-.18.05-.07,0-.16,0-.25-.03-.2-.07-.38-.2-.56-.32-.38-.22-.72-.52-1.06-.86-4.87-1.7-9.71-3.57-14.55-5.61-1.76-.75-3.51-1.35-5.29-2.14-.43-.17-.92-.45-1.39-.72-.36-.22-.72-.44-1.1-.74-.2-.17-.49-.42-.65-.71-.13-.29-.09-.49,0-.66,0,0,.05,0,.07,0,.02,0,.07,0,.11,0,.16,0,.32.05.45.1.5.13,1.01.3,1.51.45,1.49.45,3,.93,4.48,1.43,2.1.63,4.21,1.28,6.29,1.86-3.58-1.4-7.12-2.5-10.74-4.36-1.01-.54-1.96-.8-2.95-1.22-.16-.05-.34-.15-.5-.25-.16-.1-.29-.22-.43-.37-.11-.15-.18-.29-.24-.49-.11-.24-.18-.49-.22-.71,0-.1.02-.15.05-.19.05-.07.11-.07.16-.07.2-.05.45.03.68.1.63.2,1.31.45,1.96.75.5.2.95.45,1.42.6t.05,0h.02s0,0,0-.02h0l-.02-.02s-.04-.02-.07-.05c-.27-.2-.52-.34-.76-.52-.18-.12-.36-.25-.52-.37-.07-.05-.11-.1-.16-.15-.02-.02-.04-.07-.07-.12-.02-.07.02-.12.05-.15.09-.02.18-.02.25-.05.47,0,1.02.06,1.51.21,1.47.31,2.95.71,4.46,1.16-.05-.05-.09-.1-.13-.12-.22-.29-.45-.47-.7-.54-.18-.07-.38-.05-.56.02-.18,0-.34.07-.54.07-.23-.03-.47-.1-.7-.32-.29-.25-.56-.54-.92-.74-.25-.15-.54-.54-.74-.86-.34-.46-.6-.98-.82-1.49-.13-.27-.24-.54-.31-.8-.09-.22-.15-.46-.18-.68-.02-.17-.02-.36.05-.51.07-.17.16-.22.3-.24.09,0,.16.05.27.12.11.07.25.2.36.29.22.22.43.47.65.66h.02s.02.03.02,0h.02s0-.02,0-.02c.02-.07,0-.17,0-.24-.07-.22-.11-.46-.13-.7-.02-.1-.04-.22-.04-.29,0-.05,0-.07.02-.1.02-.02.02-.05.05-.02.02-.02.05,0,.07,0,.05.02.09.05.11.07.16.15.25.29.38.46.36.54.83.86,1.28,1.15.58.39,1.19.69,1.8.94.59.2,1.17.35,1.74.38.23.03.43.03.66-.04.16-.05.29-.12.43-.29,0,0,.02,0,.05-.02,0,0,.02,0,.07,0,.07,0,.14.03.2.03.18.05.34.1.5.13.07.03.14.03.2.03,0,0,.02,0,.04,0v-.07s0-.05-.02-.05c-.02-.05-.04-.1-.07-.12-.09-.12-.22-.25-.31-.34-.72-.71-1.55-1.03-2.29-1.24-.41-.08-.79-.13-1.17-.08-.32.05-.59.16-.86.38-.02.05-.07.1-.14.1-.05,0-.14-.03-.2-.05-.16-.07-.31-.22-.47-.34-.45-.42-.85-.88-1.3-1.32-.47-.47-.94-.93-1.41-1.28-.22-.12-.45-.25-.65-.27-.2-.03-.36.02-.52.14-.05.02-.09.05-.14.05-.05-.02-.11-.05-.18-.07-.13-.1-.27-.25-.36-.39-.31-.37-.58-.83-.85-1.32-.11-.2-.2-.41-.27-.63-.04-.1-.07-.19-.09-.27-.02-.07-.04-.12-.04-.19,0-.02,0-.05,0-.07,0-.02,0-.05.02-.05.02,0,.02-.02.02-.05.02.02.04.02.04.02.14.05.29.22.43.34.22.24.52.51.72.61.02.02.07.02.09.03.02-.02.05-.02.05-.05.05-.05.07-.12.07-.19,0-.58-.13-1.19-.08-1.75.02-.12.02-.27.03-.39,0-.02,0-.07,0-.1v-.02s-.02-.02-.02-.02l-.02-.03h-.02s-.02,0-.05,0c-.02.02-.07.05-.11.1-.14.07-.27.14-.41.14-.25.02-.45-.08-.68-.32-.34-.32-.65-.81-.92-1.34-.2-.49-.42-1-.6-1.53-.18-.44-.35-.9-.6-1.32-.13-.17-.27-.32-.4-.44-.18-.15-.34-.2-.47-.22t-.07-.05s-.05-.02-.07-.05c-.07-.07-.11-.15-.18-.24-.09-.22-.18-.44-.24-.68-.09-.22-.18-.46-.2-.68-.02-.07-.04-.17-.04-.22,0-.02,0-.05.02-.07,0-.02.02-.02.05-.02.05,0,.09.03.11.05.07.05.13.1.2.15.2.15.4.32.58.52.54.47,1.05.96,1.62,1.45.52.44,1.01.91,1.53,1.35.16.15.34.27.49.37.04.05.09.07.14.07h.04s0-.02,0-.02c0-.32.03-.53.03-.82h0v-.02s-.05,0-.07-.03c-.11-.02-.23-.07-.32-.15-.72-.49-1.46-1.42-2.04-2.3-.36-.51-.67-1.12-.91-1.71-.11-.27-.2-.56-.24-.85-.09-.29-.11-.53-.11-.78,0-.1.02-.19.09-.24.02-.07.07-.12.14-.12.14-.05.32.05.52.15.52.25,1.06.71,1.59,1.18.56.49,1.17,1.01,1.73,1.5.38.29.83.69,1.19.76,1.58.33,3.12,2.14,4.68,2.33.54.05.95.28,1.53.7.49.39,1.03.84,1.55,1.11.45.27.97.37,1.44.57.27.12.56.25.83.4.11.05.2.1.29.17.02.02.04.05.09.07t.02.05v.02s.02.07,0,.12c0,.02-.02.05-.02.07-.07.02-.11.07-.18.07-.18,0-.43-.1-.63-.18-.65-.27-1.33-.67-2-1.02-.74-.4-1.46-.77-2.21-1.04-.25-.1-.5-.17-.77-.2-.09,0-.18,0-.27.02-.07.02-.11.07-.16.14v.02s-.02.02-.02.05c0,0,.02,0,.02.02v.02c.07.07.13.12.18.17.25.22.49.37.7.52.74.47,1.46.89,2.23,1.31.76.44,1.53.86,2.34,1.33.27.17.54.32.81.49.11.07.31.17.43.3.02.07.09.12.16.17.07,0,.09,0,.11-.02.11-.02.16-.14.23-.22.02-.02.05-.05.05-.07.05-.02.09-.02.14-.02.11,0,.25.03.38.05.41.08.81.23,1.24.38.7.27,1.46.57,2.16.87-.76-.47-1.48-1.06-2.22-1.6-.29-.22-.58-.49-.87-.81-.25-.27-.49-.59-.69-.93-.07-.07-.11-.17-.16-.27-.02-.05-.02-.07,0-.07h.02l.02-.02s.04.02.07.05c.04.02.07.03.09.05.09.05.16.1.22.17.25.2.45.42.7.64,1.39,1.25,2.9,1.68,4.27,3.05-.05,0-.11,0-.16,0,.04.12.02.22-.02.27-.02,0-.02.02-.05.02.07.03.16.07.25.1.45.2.88.42,1.31.62-.16-.22-.38-.46-.56-.71-.04-.07-.11-.17-.18-.27-.02-.07-.04-.15-.04-.19.02-.02.02-.05.05-.05.02,0,.05,0,.07,0,.05,0,.09,0,.14.03.04.02.09.03.16.05.16.1.34.2.52.3-.13-.17-.29-.37-.45-.54-.11-.15-.22-.29-.34-.42h0s-.02,0-.07-.02t-.07-.03s-.09-.05-.13-.1c-.27-.22-.52-.54-.69-.83-.02-.02-.04-.05-.07-.07-.02-.02-.07-.07-.11-.1-.34-.27-.67-.49-1.03-.67-.49-.25-.95-.45-1.44-.62-.07-.03-.14-.05-.18-.08-.07-.02-.14-.07-.2-.12-.11-.07-.22-.2-.36-.32-.22-.2-.4-.47-.6-.76-.13-.17-.29-.44-.33-.66-.02-.07-.02-.15,0-.19,0-.02.02-.02.05-.02-.58-.52-1.17-1.08-1.77-1.6-.27-.27-.52-.56-.76-.88-.2-.32-.42-.64-.56-.98-.07-.1-.13-.22-.13-.32,0-.02,0-.05,0-.07h.02s.04.03.04.03c.02,0,.04.02.07.02,0,.02,0,.05.04.07.07.05.13.12.2.2.18.22.4.47.6.69,1.21,1.37,2.61,1.97,3.81,3.44-.07,0-.09,0-.14,0,0,.02,0,.05,0,.1.41.2.76.44,1.17.67.36.2.7.4,1.06.59-.4-.51-.76-1.08-1.14-1.66-.38-.61-.78-1.15-1.27-1.64-.29-.32-.63-.56-.94-.79-.43-.3-.88-.54-1.28-.74-.07-.02-.11-.05-.16-.1-.07-.02-.11-.07-.18-.12-.11-.1-.22-.22-.31-.32-.2-.24-.38-.51-.51-.81-.11-.2-.24-.46-.27-.68-.02-.07-.02-.15.02-.17.02-.02.05-.05.07-.05.05,0,.07.03.09.03.09.05.2.1.27.17.18.1.34.2.49.32.49.34.97.69,1.44,1.03,1.33.98,2.63,1.97,3.95,2.88.07.05.14.1.18.12-.04-.17-.02-.32.05-.44.07-.1.18-.14.27-.14.14-.02.29,0,.45.05-.36-.32-.7-.61-1.01-.93-.65-.61-1.32-1.32-1.88-2.15-.2-.27-.38-.59-.47-.9-.11-.27-.09-.46,0-.63.07-.07.16-.12.27-.12.11,0,.27.05.41.08.43.17.9.4,1.37.64h0Zm103.29,33.88c.23-.14.48-.29.68-.45.11-.1.23-.19.34-.29.07-.1.14-.17.18-.27.02,0,.02-.02.02-.02v-.02s-.02,0-.02,0c0,0,0-.02-.02,0-.04,0-.14.02-.2.05-.27.07-.57.19-.84.31-.7.31-1.43.64-2.15.97.29-.07.57-.12.86-.19.38-.07.86-.14,1.15-.09h0Zm-2.97-4.5c1.91-1.15-.2-.22-1.97.59.29-.02.61,0,.9-.01.34-.19.73-.38,1.07-.57h0Zm-2.43,1.29c.05-.41-1.85.03-2.47.9-.3.39,2.42-.87,2.47-.9h0Zm16.57-6.97s-.05.05-.05.07c.65.15,1.31-.33,1.99-.25.11,0,.25.03.36.03.02,0,.07-.02.11-.02h.02s.02-.02.02-.02h.02s0-.02-.02-.02c.02-.02,0-.02,0-.05-.02-.05-.07-.07-.11-.1-.14-.07-.29-.15-.45-.2-.11-.05-.29-.1-.45-.08-.34.07-.68.07-1.04.13-.07.02-.16.05-.23.07-.07.02-.11.05-.18.1-.02.02-.05.05-.05.07t-.02.07s.04.12.07.19h0Zm-2.08-.07c.14.05.32.08.47.08.05,0,.09,0,.14,0h.02s.02,0,.05-.02v-.02s0-.02,0-.02c0-.02-.02-.02-.04-.02-.04-.05-.09-.1-.16-.12-.09-.07-.27-.15-.41-.15-.05,0-.07,0-.11.02v.02l-.02.02s0,.07.02.1c0,.05,0,.1.04.12h0Zm-111.22-.96c.07-.05.14-.1.25-.09.23-.07.52-.04.77.03.27.05.52.13.77.23.02-.22.07-.44.25-.63.07-.07.14-.14.21-.24,0-.02,0-.07,0-.1t-.02-.02s-.04-.02-.04-.02c0-.02-.02-.02-.05-.02-.02-.02-.05-.02-.07-.03-.04-.05-.09-.05-.16-.05-.18-.05-.32-.08-.47-.1-.5-.1-1.01-.23-1.51-.4-.16-.07-.32-.12-.47-.17-.77.04-1.51.23-2.31.29.05.02.07.05.11.07.47.2.9.49,1.35.79.05,0,.09.03.14.07.43.12.86.28,1.26.4h0Zm-3.22-1.29s-.07,0-.11.02c-.27,0-.59,0-.86,0,.38.13.77.23,1.19.35-.07-.07-.11-.15-.16-.22-.02-.05-.04-.1-.07-.15h0Zm-5.64-.69c-.47.04-.93.16-1.36.4-.02,0-.05.02-.07.02,3.36.98,6.74,2.11,10.12,3.21-.67-.49-1.35-1.03-2-1.65-.09-.1-.18-.17-.29-.29-.68-.18-1.35-.35-2.07-.51-1.42-.33-2.89-.73-4.33-1.18h0Zm-.43-6.31c-2.14-.6,1.53,1.25,2.9,1.87.02,0,.05.02.07,0t.02-.02s-.07-.1-.11-.15c-.2-.27-.4-.54-.58-.78-.77-.3-1.51-.6-2.3-.92h0Zm8.02,2.34c-.59-.25-1.28-.4-1.92-.55.56.37,1.12.71,1.66,1.04.59.13,1.11.21,1.24.11.02,0-.29-.17-.52-.3-.11-.05-.2-.1-.31-.17-.02,0-.05-.02-.11-.07l-.02-.02s-.02,0-.02-.02h0Zm-20.13-10.86s.05-.05.07-.05c-.49-1-1.1-1.25-1.61-2.15-.09-.17-.18-.34-.31-.51,0-.02-.04-.07-.07-.12t-.04-.02v-.02s-.02,0-.02.02v.02s0,.05,0,.05c.02.1.07.22.09.32.09.27.2.56.33.83.09.24.22.49.36.66.27.39.56.78.85,1.15.07.07.16.15.2.2.04.05.09.07.13.07.02,0,.05-.02.05-.02,0-.05.02-.07.02-.1,0-.07,0-.19-.04-.32h0Zm1.7,2.57c-.11-.22-.24-.46-.4-.68-.02-.05-.07-.1-.11-.15l-.02-.02h-.02s-.02,0-.02,0c0,0,0,.02,0,.05,0,.02.02.07.04.1.02.12.07.22.11.34.09.22.2.51.33.68,0,.02.04.05.07.07h.02s0-.02.02-.02c0-.05,0-.07,0-.12,0-.07-.02-.15-.04-.24h.02Zm127.92.13s-.09.07-.14.12h.02s.02.02.05.03c.02,0,.04,0,.04,0,.39-.22.75-.43,1.11-.64-.23.07-.43.17-.63.26-.14.07-.29.14-.41.21-.05,0-.05.02-.05.02h0Zm28.15,1.86s-.07,0-.11.02c.81.76,1.96,1.01,2.81,1.78.13.15.27.27.4.39.07.05.09.07.13.1.02.02.04.02.07.05h.05s.02.03.02.03t.05-.02v-.02c-.02-.07-.04-.15-.07-.19-.07-.19-.2-.39-.36-.56-.13-.2-.31-.37-.52-.52-.49-.32-.97-.66-1.51-.96-.14-.07-.27-.15-.36-.2-.09-.05-.23-.07-.32-.1-.07,0-.09,0-.16,0-.02,0-.04,0-.07.02-.07.05-.07.1-.07.19h0Zm-3.01-2.04c.22.17.43.34.67.49.07.05.11.07.18.12.02,0,.04.02.07.03.02.02.04.02.07,0t0,0s.02,0,0,0c.02-.02.02-.05.02-.07-.02-.1-.09-.17-.13-.22-.16-.2-.34-.39-.54-.52-.05,0-.09-.03-.14-.05t-.04,0s-.05,0-.05,0c-.05.02-.07.05-.07.07-.05.05-.05.07-.05.15h0Zm-21.51,9.34c-.98.55-1.93,1.07-2.93,1.62.79-.26,1.59-.49,2.38-.78.29-.12.61-.24.93-.38.14-.1.25-.17.41-.26.02,0,.05-.02.07-.02.11-.07.18-.14.25-.24,0,0,0-.02.02-.02,0,0,0-.02-.02-.02,0-.02-.02,0,0-.02h-.02c-.07,0-.16-.03-.25,0-.27.02-.57.07-.84.14Z"/>
    <path class="cls-49" d="m195.48,356.62c-.09-.03-.09.02-.18.02-.09.27-.46,1.4.17,1.43.72.03.21-1.14.01-1.46h0Zm-37.04-16.15c-.09.31.65.18,1.62.36.83.15,1.87.67,2.21.75,1.51.43-.47-.71-.97-.66-.5-.17-2.23-.75-2.87-.44h0Zm25.57,3.1c.14.05.32-.09.45-.17.05-.02.09-.05.14-.07.18-.09.36-.21.54-.29.05,0,.05.02.07,0,.07-.02.2-.02.32-.05.05,0,.14-.05.2-.07.02,0,.04.02.09.03.23-.05.54-.02.81-.02.02-.17-.13-.17-.22-.2-.09-.03-.2.05-.32.05-.14,0-.29,0-.45.04-.05,0-.07-.02-.09-.03-.02,0-.07.05-.07.07-.07,0-.11-.03-.16-.03-.23.05-.52.14-.77.24-.11.05-.25.09-.32.17-.02,0-.14.1-.14.1-.05.07-.07.12-.09.22h0Zm-.68,5.67s-.17,1.24-.08,1.36c.23-.07.14-1.21.08-1.36h0Zm-11.68-6.11c-.88-.59-1.79.76-1.85-.09.23-.17.48-.31.75-.31h0c.25,0,.91-.16,1.04.18.02,0,.18.22.07.22h0Zm.81.28c-.09-.44,1.07-.65,1.15-.16-.25-.2-1.04-.16-1.15.16h0Zm-1.04,6.03c0,.61-.14,3.23-.45,2.23-.22-.83.52-3.49.45-2.23h0Zm-18.09,5.81c0,.32-.17,1.09-.39.55-.13-.29.39-.99.39-.55h0Zm-.2,2.23c0-.41,0-.75-.22-1-.29-.32-.34,3.37.27,2.7.3-.31-.06-1.31-.06-1.7h0Zm4.71-16.89c-.2-.22-1.4.2-1.36.33.32.03,1.17.01,1.36-.33h0Zm4.92,6.43c-.79.04-.48-1.87-.3-2.33.02-.1.64-1.01.55-.8-.32.82-.53.97-.04,2.11.27.59.15.97-.21,1.02h0Zm-11.94-7.55c-1.58-.02-2.51.58-3.36-1.34.45.22.63.69,1.19.69.25,0,.5-.24.75.03.16.17-.16.17-.16.34,0,.1.95.06,1.06.06.2,0,.63.22.52.22h0Zm23.44,24.46c-.11.14-.05.24.18.29.07-.12,0-.22-.18-.29h0Zm0,.85c-.09,0-.09.05-.18.05-.09.27-.46,1.4.17,1.43.72.03.21-1.16.01-1.48Z"/>
  </g>
  <g class="cls-47">
    <g>
      <polygon class="cls-1" points="200.46 274.29 201.27 258.35 199.65 258.35 200.46 274.29"/>
      <path class="cls-59" d="m203.78,258.58c0,.48-1.49.61-3.32.61s-3.32-.13-3.32-.61,1.49-1.12,3.32-1.12,3.32.64,3.32,1.12Z"/>
    </g>
    <g>
      <polygon class="cls-1" points="196.52 274.83 195.7 290.77 197.33 290.77 196.52 274.83"/>
      <path class="cls-59" d="m193.19,290.54c0-.48,1.49-.61,3.32-.61s3.32.13,3.32.61-1.49,1.12-3.32,1.12-3.32-.64-3.32-1.12Z"/>
    </g>
    <g>
      <polygon class="cls-1" points="208.35 274.29 209.16 258.35 207.53 258.35 208.35 274.29"/>
      <path class="cls-59" d="m211.67,258.58c0,.48-1.49.61-3.32.61s-3.32-.13-3.32-.61,1.49-1.12,3.32-1.12,3.32.64,3.32,1.12Z"/>
    </g>
    <g>
      <polygon class="cls-1" points="204.4 274.83 203.59 290.77 205.22 290.77 204.4 274.83"/>
      <path class="cls-59" d="m201.08,290.54c0-.48,1.49-.61,3.32-.61s3.32.13,3.32.61-1.49,1.12-3.32,1.12-3.32-.64-3.32-1.12Z"/>
    </g>
    <g>
      <polygon class="cls-1" points="212.29 274.83 211.48 290.77 213.1 290.77 212.29 274.83"/>
      <path class="cls-59" d="m208.97,290.54c0-.48,1.49-.61,3.32-.61s3.32.13,3.32.61-1.49,1.12-3.32,1.12-3.32-.64-3.32-1.12Z"/>
    </g>
  </g>
  <g>
    <g>
      <polygon class="cls-76" points="189.9 207.24 209.95 231.5 191.13 230.98 177.42 220.6 189.9 207.24"/>
      <polygon class="cls-46" points="189.9 207.24 195.63 214.17 182.78 224.65 177.42 220.6 189.9 207.24"/>
      <path class="cls-76" d="m191.13,230.98c-4.39,9.01-13.71,21.08-13.71,21.08,0,0,3.05,1.34,3.47,7.98,7.39-3.98,14.11-8.87,18.5-12.58,6.33-4.24,10.37-12.43,10.55-15.95-12.31-7.39-17.1-.64-18.82-.53Z"/>
      <path class="cls-56" d="m192.01,230.62s6.76-4.92,7.23-3.28-7.23,3.28-7.23,3.28Z"/>
    </g>
    <g>
      <polygon class="cls-76" points="89.58 207.24 69.54 231.5 88.35 230.98 102.06 220.6 89.58 207.24"/>
      <polygon class="cls-46" points="89.58 207.24 83.69 214.37 97.16 224.31 102.06 220.6 89.58 207.24"/>
      <path class="cls-76" d="m88.35,230.98c4.39,9.01,13.71,21.08,13.71,21.08,0,0-3.05,1.34-3.47,7.98-7.39-3.98-14.11-8.87-18.5-12.58-6.33-4.24-10.37-12.43-10.55-15.95,12.31-7.39,17.1-.64,18.82-.53Z"/>
      <path class="cls-56" d="m87.48,230.62s-6.29-4.44-6.76-2.57,6.76,2.57,6.76,2.57Z"/>
    </g>
    <g>
      <path class="cls-7" d="m123.31,151.08c-2.47,4.65.31,18.14,8.21,20.86h15.69c8.55-4.43,11.78-17.34,8.39-20.76-4.22-2.87-14.78-6.45-14.78-6.45,0,0-14.33,3.6-17.5,6.35Z"/>
      <path class="cls-76" d="m124.07,156.69c-2.36.49-4.73-1.26-5.28-3.92-.55-2.65.92-5.2,3.29-5.69,2.36-.49,4.36,9.12,1.99,9.61Z"/>
      <path class="cls-76" d="m154.53,156.69c2.37.49,4.73-1.26,5.28-3.92.55-2.65-.92-5.2-3.29-5.69-2.36-.49-4.36,9.12-1.99,9.61Z"/>
      <rect class="cls-8" x="131.09" y="169.18" width="16.71" height="18.57"/>
      <path class="cls-19" d="m147.8,187.75h-16.71v-11.74s6.86,6.52,8.69,6.52,8.02-6.52,8.02-6.52v11.74Z"/>
      <path class="cls-76" d="m139.42,174.26c19.62,0,16.48-33.65,16.48-33.65,0,0-.81-11.03-16.05-11.03-13.29,0-16.57,11.3-16.57,11.3,0,0-3.61,33.38,16.14,33.38Z"/>
      <path class="cls-7" d="m121.15,147.4c1.6-.36,3.32,2.7,3.32,2.7l.66-11.67s9.07,5.03,18.62,3.45c-1.61-3.02-.95-5.3-.95-5.3,0,0,5.51,4.27,8.09,4.28.66-1.29,2.58-2.46,2.58-2.46,0,0,1.39,12.76,1.34,12.27.84-3.29,3.17-2.95,3.17-2.95,0,0,5-23.42-18.43-23.42s-18.43,22.44-18.4,23.1Z"/>
      <g>
        <path class="cls-7" d="m139.75,162.23c-.27,3.99,9.7,3.47,9.7,3.47,0,0-9.43-7.47-9.7-3.47Z"/>
        <path class="cls-7" d="m139.61,162.23c.27,3.99-9.7,3.47-9.7,3.47,0,0,9.43-7.47,9.7-3.47Z"/>
      </g>
      <path class="cls-65" d="m142.99,159.57h-6.55c0-.69,1.09-1.23,2.44-1.23h1.68c1.35,0,2.44.55,2.44,1.22h0Z"/>
    </g>
    <g>
      <path class="cls-16" d="m139.74,149.89c-16.47,0-18.85-5.66-18.85-5.66h37.53s-3.04,5.66-18.69,5.66Z"/>
      <path class="cls-87" d="m140.09,120.4h-1.76c-10.64,0-19.26,8.62-19.26,19.26v.19h40.28v-.19c0-10.64-8.62-19.26-19.26-19.26Z"/>
      <path class="cls-62" d="m158.4,137.93c-12.8-3.14-11.08-11.21-15.92-16.84h-6.77c-4.84,5.63-3.13,13.7-15.92,16.84h38.62Z"/>
      <path class="cls-87" d="m142.42,119.02h-6.52s-.34,18.99-18.19,18.99v2.97h42.91v-2.97c-17.85,0-18.19-18.99-18.19-18.99Z"/>
      <rect class="cls-62" x="117.7" y="139.56" width="42.91" height="3.32"/>
      <path class="cls-87" d="m117.7,142.88s10.86-1.64,21.51-1.66c10.8-.02,21.4,1.66,21.4,1.66,0,2.08-10.69,4.81-21.4,4.81-10.75,0-21.51-2.74-21.51-4.81Z"/>
    </g>
    <g>
      <path class="cls-29" d="m177.42,226.05l18.21-12.72-16.78-23.06v-2.24l-4.03-3.25c-.45-.73-1.38-1.44-2.63-2.12l-.2-.17-.02.05c-7.06-3.73-23.5-6.53-23.73-6.27l-7.58,7.15c-.53.59-1.45.58-1.97-.01,0,0-7.57-7.25-8.02-7.18,0,0-16.21,2.63-23.16,6.26h0s0,0,0,0c-1.4.73-2.42,1.51-2.86,2.31l-4.01,3.24v2.24l-16.94,23.33,18.37,12.46,7.08-6.62,4.1,19.93-.07,19.54,5.55,1.04,6.51-17.41-2.47-34.88h33.76s-2.47,34.88-2.47,34.88l6.51,17.41,5.55-1.04-.07-19.54,4.12-20.06,7.28,6.76Z"/>
      <polygon class="cls-86" points="109.13 219.37 114.71 216.89 115.37 213.33 109.13 219.37"/>
      <polygon class="cls-86" points="170.13 219.37 164.64 216.85 164.61 213.33 170.13 219.37"/>
      <path class="cls-9" d="m114.4,267.83s8.73,3.17,24.75,3.17,24.75-3.17,24.75-3.17v-8.79h-49.49v8.79Z"/>
      <g>
        <path class="cls-24" d="m133.15,264.2v7.57h12.82v-7.57h-12.82Zm10.9,6.43h-8.97v-5.3h8.97v5.3Z"/>
        <rect class="cls-24" x="135.86" y="267.36" width="3.33" height="1.52" rx=".75" ry=".75"/>
      </g>
      <path class="cls-71" d="m132.41,267.61c0,.42-.34.76-.76.76s-.76-.34-.76-.76.34-.76.76-.76.76.34.76.76Z"/>
      <path class="cls-71" d="m128.08,267.36c0,.42-.34.76-.76.76s-.76-.34-.76-.76.34-.76.76-.76.76.34.76.76Z"/>
      <path class="cls-85" d="m111.84,259.94c.14,5.23,47.65,5.62,54.36,1.34,2.46-3.45-1.55-12.42-1.55-19.28v-40.62h-49.92v40.27c0,5.28-3.03,13.07-2.89,18.29Z"/>
      <polygon class="cls-30" points="155.9 207.65 163.02 207.65 163.02 178.94 155.9 177.43 155.9 207.65"/>
      <polygon class="cls-30" points="123.9 207.65 116.78 207.65 116.78 178.94 123.9 177.43 123.9 207.65"/>
      <path class="cls-80" d="m138.67,183.05c.52.6,1.45.6,1.97.01l7.58-6.79c.05-.05.77.02,1.96.2-1.34,2.23-6.16,6.61-8.74,8.87-.98.86-2.42.92-3.47.15-2.7-1.97-8.08-7.15-9.29-8.92,1.23-.22,1.97-.34,1.97-.34.45-.07,8.02,6.81,8.02,6.81Z"/>
      <polygon class="cls-86" points="172.73 212.66 165.56 214.73 176.26 206.24 164.64 211.93 164.64 216.85 164.97 216.09 172.73 212.66"/>
      <polygon class="cls-86" points="106.63 215.31 113.79 214.77 104.63 204.5 114.71 213.82 114.71 216.89 114.38 216.13 106.63 215.31"/>
    </g>
    <g>
      <rect class="cls-54" x="122.16" y="210.7" width="35.17" height="9.3"/>
      <path class="cls-84" d="m152.91,236.84h-26.17c-1.9,0-3.44-1.39-3.44-3.1v-13.74h33.04v13.74c0,1.71-1.54,3.1-3.44,3.1Z"/>
      <rect class="cls-77" x="123.3" y="220" width="33.04" height="4.65"/>
    </g>
    <g>
      <polygon class="cls-42" points="93.41 263.74 92.49 250.62 102.58 244.21 106.61 251.86 110.49 251.24 110.9 253.83 113.65 255.57 122.21 260.01 126.43 265.48 126.71 267.25 128.23 269 126.62 272.24 123.98 271.17 121.86 273.83 119.92 274.14 117.37 275.87 110.57 275.62 103.48 267.61 101.22 266.97 100.69 265.73 93.41 263.74"/>
      <polygon class="cls-96" points="112.79 258.53 114.73 259.21 111.18 273.2 112.79 258.53"/>
      <polygon class="cls-96" points="101.3 256.35 99.1 263.33 102.6 257.85 101.3 256.35"/>
    </g>
    <g>
      <polygon class="cls-42" points="186.07 263.74 186.99 250.62 176.9 244.21 172.87 251.86 168.99 251.24 168.58 253.83 165.83 255.57 157.28 260.01 153.05 265.48 152.77 267.25 151.25 269 152.87 272.24 155.5 271.17 157.63 273.83 159.57 274.14 162.11 275.87 168.91 275.62 176 267.61 178.26 266.97 178.79 265.73 186.07 263.74"/>
      <polygon class="cls-96" points="164.86 258.7 162.92 259.39 168.3 273.2 164.86 258.7"/>
      <polygon class="cls-96" points="176.84 255.13 180.39 263.33 174.97 255.13 176.84 255.13"/>
    </g>
  </g>
  <g>
    <g>
      <path class="cls-22" d="m230.4,243h-4.8v4.06h4.8c-.68-2.31,0-4.06,0-4.06Z"/>
      <path class="cls-101" d="m229.56,243.6h-3.39v2.87h3.39c-.48-1.63,0-2.87,0-2.87Z"/>
    </g>
    <path class="cls-97" d="m237.81,243h-24.16c-1.59,0-2.67-1.41-2.4-3.15l.8-5.21c.27-1.74,1.78-3.15,3.37-3.15h22.39l1.45.92v9.67l-1.45.92Z"/>
    <polygon class="cls-2" points="240.61 242 239.25 242 239.25 242 239.25 232.5 239.25 232.5 240.61 232.5 240.61 242"/>
    <g>
      <path class="cls-45" d="m230.56,240.65h-9.81c-1.92,0-3.48-1.56-3.48-3.48v-.07c0-1.92,1.56-3.48,3.48-3.48h9.81v7.03Z"/>
      <rect class="cls-104" x="221.56" y="234.07" width="5.2" height="6.11"/>
      <rect class="cls-28" x="227.49" y="234.07" width="2.51" height="6.11"/>
      <polygon class="cls-64" points="222.34 239.91 222.02 239.91 222.91 234.34 223.23 234.34 222.34 239.91"/>
      <polygon class="cls-64" points="222.93 239.91 222.61 239.91 223.5 234.34 223.82 234.34 222.93 239.91"/>
      <polygon class="cls-64" points="223.52 239.91 223.2 239.91 224.09 234.34 224.41 234.34 223.52 239.91"/>
      <polygon class="cls-64" points="224.12 239.91 223.8 239.91 224.68 234.34 225 234.34 224.12 239.91"/>
      <polygon class="cls-64" points="224.71 239.91 224.39 239.91 225.28 234.34 225.6 234.34 224.71 239.91"/>
    </g>
    <rect class="cls-57" x="223.2" y="230.97" width="6.6" height=".52" rx=".26" ry=".26"/>
    <polygon class="cls-67" points="239.25 242 237.81 243 237.81 231.49 239.25 232.41 239.25 242"/>
    <g>
      <rect class="cls-59" x="240.61" y="234.77" width=".57" height="4.95"/>
      <g>
        <polygon class="cls-98" points="249.14 241.27 241.18 241.27 241.18 233.22 249.14 233.22 250.85 234.14 250.85 240.35 249.14 241.27"/>
        <rect class="cls-74" x="241.47" y="233.57" width="1.78" height="7.35"/>
        <rect class="cls-75" x="241.66" y="233.66" width="7.24" height=".36"/>
        <rect class="cls-75" x="241.66" y="234.42" width="7.24" height=".36"/>
        <rect class="cls-75" x="241.66" y="235.18" width="7.24" height=".36"/>
        <rect class="cls-75" x="241.66" y="235.94" width="7.24" height=".36"/>
        <rect class="cls-75" x="241.66" y="236.7" width="7.24" height=".36"/>
        <rect class="cls-75" x="241.66" y="237.46" width="7.24" height=".36"/>
        <rect class="cls-75" x="241.66" y="238.22" width="7.24" height=".36"/>
        <rect class="cls-75" x="241.66" y="238.98" width="7.24" height=".36"/>
        <rect class="cls-75" x="241.66" y="239.74" width="7.24" height=".36"/>
        <rect class="cls-75" x="241.66" y="240.5" width="7.24" height=".36"/>
      </g>
      <g>
        <rect class="cls-20" x="250.85" y="234.42" width=".5" height="5.68"/>
        <polygon class="cls-61" points="251.35 235.28 251.35 239.23 253.49 238.2 253.49 236.31 251.35 235.28"/>
        <rect class="cls-26" x="251.35" y="237.13" width="1.62" height=".22"/>
      </g>
    </g>
    <path class="cls-97" d="m234.79,258.68l-8.34-.59c-1.11-.11-1.91-1.13-1.76-2.23.49-3.53,1.81-10.64,4.7-12.85h-13.31c2.6,0,2.25,2.87,2.11,3.64l-.04.19h0s-2.65,6.22-2.65,13.93h19.74c0-.26.13-1.47-.46-2.09Z"/>
    <path class="cls-100" d="m216.08,243c1.35,0,1.91.78,2.11,1.64l6.13-.03c.02.67.57,1.2,1.24,1.2s1.23-.54,1.24-1.22h1.25c.4-.67.85-1.22,1.34-1.6h-13.31Z"/>
    <path class="cls-100" d="m222.68,256.86h-5.55c.12-2.49,1.08-5.51,1.84-7.57.54-1.45,1.92-2.41,3.47-2.41h2.94c-1.26,1.31-2.71,9.98-2.71,9.98Z"/>
    <path class="cls-41" d="m222.59,248.72c0,.32-.26.57-.57.57s-.57-.26-.57-.57.26-.57.57-.57.57.26.57.57Z"/>
    <path class="cls-41" d="m220.97,255.03c0,.32-.26.57-.57.57s-.57-.26-.57-.57.26-.57.57-.57.57.26.57.57Z"/>
    <g>
      <path class="cls-13" d="m233.61,272.52h-16.41c-.77,0-1.39-.62-1.39-1.39v-10.37h19.19v10.37c0,.77-.62,1.39-1.39,1.39Z"/>
      <rect class="cls-13" x="215.21" y="260.76" width="20.24" height="1.9"/>
      <rect class="cls-66" x="220.69" y="260.76" width="6.95" height="1.9"/>
      <path class="cls-27" d="m235,262.66h-19.19v1.3h5.48c.2,1.41,1.4,2.49,2.87,2.49h.06c1.46,0,2.67-1.09,2.87-2.49h7.92v-1.3Z"/>
      <rect class="cls-89" x="220.97" y="260.91" width="6.43" height="2.4"/>
      <rect class="cls-69" x="221.34" y="261.18" width="5.7" height="2.13"/>
      <g>
        <path class="cls-22" d="m224.22,265.85h-.05c-1.42,0-2.58-1.15-2.58-2.58v-1.89h5.21v1.89c0,1.42-1.15,2.58-2.58,2.58Z"/>
        <rect class="cls-95" x="221.85" y="261.56" width="4.63" height="1.81"/>
        <rect class="cls-95" x="222.06" y="263.5" width="4.13" height=".24"/>
        <rect class="cls-95" x="222.06" y="263.99" width="4.13" height=".24"/>
        <rect class="cls-95" x="222.28" y="264.47" width="3.69" height=".24"/>
        <rect class="cls-95" x="222.66" y="264.95" width="3.02" height=".24"/>
      </g>
    </g>
    <g>
      <path class="cls-22" d="m226.52,244.56c0,.53-.43.96-.96.96s-.96-.43-.96-.96.43-.96.96-.96.96.43.96.96Z"/>
      <path class="cls-101" d="m226.24,244.56c0,.38-.31.69-.69.69s-.69-.31-.69-.69.31-.69.69-.69.69.31.69.69Z"/>
    </g>
    <g>
      <rect class="cls-55" x="253.49" y="236.74" width="6.32" height="1.01"/>
      <path class="cls-90" d="m258.89,237.54h-5.41v-.6h5.41c.14,0,.26.11.26.24v.12c0,.13-.12.24-.26.24Z"/>
      <rect class="cls-14" x="253.49" y="236.74" width=".33" height="1.01"/>
      <polygon class="cls-81" points="259.8 236.86 259.8 237.65 260.23 237.24 259.8 236.86"/>
    </g>
  </g>
  <g>
    <path class="cls-69" d="m245.54,215.71h-.01c-.3,0-.55-.25-.55-.55v-11.61c0-.21.12-.41.32-.5l16.63-7.8c.19-.09.32-.28.32-.5v-6.52c0-.3-.25-.55-.55-.55h-3.75c-.3,0-.55-.25-.55-.55h0c0-.31.25-.56.55-.56h4.85c.3,0,.55.25.55.55v8.33c0,.21-.12.41-.32.5l-16.63,7.8c-.19.09-.32.28-.32.5v10.91c0,.3-.25.55-.55.55Z"/>
    <g>
      <rect class="cls-78" x="232.18" y="182.48" width="26.89" height="9.5"/>
      <rect class="cls-4" x="232.18" y="186.85" width="26.89" height="5.13"/>
      <path class="cls-63" d="m260.47,192.02h-1.4v-9.54h1.4c.31,0,.57.32.57.71v8.12c0,.39-.26.71-.57.71Z"/>
      <path class="cls-63" d="m230.79,182.48h1.4v9.54h-1.4c-.31,0-.57-.32-.57-.71v-8.12c0-.39.26-.71.57-.71Z"/>
    </g>
    <g>
      <polygon class="cls-94" points="247.66 227.18 243.41 227.18 243.88 209.9 247.19 209.9 247.66 227.18"/>
      <polygon class="cls-12" points="247.24 211.58 243.84 211.58 243.88 209.9 247.19 209.9 247.24 211.58"/>
      <path class="cls-94" d="m247,207.39c-.09.73-.71,1.29-1.46,1.29s-1.37-.56-1.46-1.29h-.62l.43,2.52h3.31l.43-2.52h-.62Z"/>
    </g>
  </g>
  <g class="cls-68">
    <polygon class="cls-79" points="209.95 215.4 224.99 193.75 227.51 195.33 212.47 216.98 209.95 215.4"/>
    <polygon class="cls-79" points="203.55 211.38 218.6 189.73 221.11 191.31 206.07 212.96 203.55 211.38"/>
    <polygon class="cls-58" points="206.4 212.49 220.78 191.79 224.66 194.23 210.28 214.92 206.4 212.49"/>
    <polygon class="cls-18" points="212.8 216.51 227.18 195.81 240.46 204.16 226.08 224.85 212.8 216.51"/>
    <path class="cls-10" d="m203.89,210.9l7.19-10.35,7.19-10.35c-5.98,5.62-9.12,8.02-17.87.04-8.75-7.98-16.68-10.16-18.26-7.89s3.64,8.35,14.79,12.88c11.15,4.53,10.06,8.22,6.96,15.66Zm-19.46-27.1c.52-.74,2.04-.65,3.41.21s2.05,2.16,1.54,2.9-2.04.65-3.41-.21-2.05-2.16-1.54-2.9Z"/>
    <path class="cls-21" d="m198.99,189.03c-8.19-6.96-15.37-8.81-16.86-6.66s3.11,7.71,13.05,12.14l3.81-5.48Zm-14.57-5.22c.52-.74,2.04-.65,3.41.21s2.05,2.16,1.54,2.9-2.04.65-3.41-.21-2.05-2.16-1.54-2.9Z"/>
    <polygon class="cls-92" points="239.96 204.9 228.88 197.53 240.32 204.33 239.96 204.9 239.96 204.9"/>
    <polygon class="cls-92" points="239.43 205.66 232.81 201.1 239.79 205.09 239.43 205.66 239.43 205.66"/>
    <polygon class="cls-92" points="238.9 206.43 227.82 199.06 239.26 205.85 238.9 206.43 238.9 206.43"/>
    <polygon class="cls-92" points="238.37 207.19 231.75 202.62 238.73 206.61 238.37 207.19 238.37 207.19"/>
    <polygon class="cls-92" points="237.84 207.95 226.76 200.58 238.2 207.38 237.84 207.95 237.84 207.95"/>
    <polygon class="cls-92" points="237.31 208.71 230.69 204.15 237.67 208.14 237.31 208.71 237.31 208.71"/>
    <polygon class="cls-92" points="236.78 209.48 225.7 202.11 237.14 208.9 236.78 209.48 236.78 209.48"/>
    <polygon class="cls-92" points="236.25 210.24 229.63 205.67 236.61 209.66 236.25 210.24 236.25 210.24"/>
    <polygon class="cls-92" points="235.72 211 224.64 203.63 236.08 210.43 235.72 211 235.72 211"/>
    <polygon class="cls-92" points="235.19 211.76 228.57 207.2 235.55 211.19 235.19 211.76 235.19 211.76"/>
    <polygon class="cls-92" points="234.66 212.53 223.58 205.16 235.02 211.95 234.66 212.53 234.66 212.53"/>
    <polygon class="cls-92" points="234.13 213.29 227.51 208.72 234.49 212.71 234.13 213.29 234.13 213.29"/>
    <polygon class="cls-92" points="233.6 214.05 222.52 206.68 233.96 213.48 233.6 214.05 233.6 214.05"/>
    <polygon class="cls-92" points="233.07 214.81 226.45 210.25 233.43 214.24 233.07 214.81 233.07 214.81"/>
    <polygon class="cls-92" points="232.54 215.58 221.46 208.21 232.91 215 232.54 215.58 232.54 215.58"/>
    <polygon class="cls-92" points="232.01 216.34 225.39 211.77 232.38 215.76 232.01 216.34 232.01 216.34"/>
    <polygon class="cls-92" points="231.48 217.1 220.4 209.73 231.85 216.53 231.48 217.1 231.48 217.1"/>
    <polygon class="cls-92" points="230.95 217.86 224.33 213.3 231.32 217.29 230.95 217.86 230.95 217.86"/>
    <polygon class="cls-92" points="230.42 218.63 219.34 211.26 230.79 218.05 230.42 218.63 230.42 218.63"/>
    <polygon class="cls-92" points="229.89 219.39 223.27 214.82 230.26 218.81 229.89 219.39 229.89 219.39"/>
    <polygon class="cls-92" points="229.36 220.15 218.28 212.78 229.73 219.58 229.36 220.15 229.36 220.15"/>
    <polygon class="cls-92" points="228.83 220.91 222.21 216.35 229.2 220.34 228.83 220.91 228.83 220.91"/>
    <polygon class="cls-92" points="228.31 221.68 217.22 214.31 228.67 221.1 228.31 221.68 228.31 221.68"/>
    <polygon class="cls-92" points="227.78 222.44 221.15 217.87 228.14 221.86 227.78 222.44 227.78 222.44"/>
    <polygon class="cls-92" points="227.25 223.2 216.16 215.83 227.61 222.63 227.25 223.2 227.25 223.2"/>
    <polygon class="cls-92" points="226.72 223.96 220.09 219.4 227.08 223.39 226.72 223.96 226.72 223.96"/>
    <polygon class="cls-92" points="226.19 224.73 215.1 217.36 226.55 224.15 226.19 224.73 226.19 224.73"/>
  </g>
  <text class="cls-5" transform="translate(36.31 370.36)"><tspan x="0" y="0">home assistance</tspan></text>
  <g>
    <rect class="cls-73" x="253.66" y="252.27" width="22.34" height="2.81" transform="translate(-98.64 204.92) rotate(-36.13)"/>
    <path class="cls-44" d="m275.85,242.89l-2.06,1.5-4.74-6.49c-.16-.22-.49-.26-.73-.09l-19.84,14.48c-.24.17-.3.5-.14.72l4.74,6.49-2.06,1.5-4.74-6.49c-.94-1.28-.58-3.14.79-4.14l19.84-14.48c1.37-1,3.25-.78,4.19.51l4.74,6.49Z"/>
    <path class="cls-74" d="m286.8,234.89l-14.37,10.49,1.67,2.28-17.82,13.01-1.67-2.28-14.37,10.49c-.47.35-.6.99-.27,1.43l2.75,3.76,14.28-10.42,2.75-2.01,14.21-10.38,2.67-1.95,14.36-10.48-2.75-3.76c-.32-.44-.97-.52-1.44-.17Z"/>
    <path class="cls-74" d="m300.99,258.89l-42.27,30.85c-1.18.86-2.8.67-3.61-.44l-11.56-15.84,46.56-33.99,11.56,15.84c.81,1.11.5,2.7-.68,3.57Z"/>
    <path class="cls-60" d="m290.11,239.48l-46.56,33.99,1.1,1.51,14.9-10.88.67.91c.3.41.85.51,1.24.23l15.57-11.36c.38-.28.45-.84.16-1.25l-.67-.91,14.69-10.73-1.1-1.51Z"/>
    <g>
      <rect class="cls-44" x="255.59" y="252.54" width="20.78" height="5.1" transform="translate(-99.25 205.87) rotate(-36.13)"/>
      <rect class="cls-48" x="257.69" y="255.14" width="18.05" height="1.91" transform="translate(-99.7 206.49) rotate(-36.13)"/>
      <path class="cls-44" d="m260.53,264.51l-1.09-1.49,16.09-11.75,1.09,1.49c.27.36.19.88-.18,1.14l-14.77,10.78c-.36.27-.88.19-1.14-.18Z"/>
      <rect class="cls-48" x="260.61" y="257" width="14.65" height="1.51" transform="translate(-100.45 207.53) rotate(-36.13)"/>
      <rect class="cls-15" x="257.77" y="257.07" width="19.92" height=".84" transform="translate(-100.33 207.36) rotate(-36.13)"/>
    </g>
    <rect class="cls-13" x="249.69" y="265.3" width="51.94" height="6.84" transform="translate(-105.43 214.2) rotate(-36.13)"/>
    <rect class="cls-43" x="273.05" y="242.1" width="2.55" height="1.7" transform="translate(-90.49 208.45) rotate(-36.13)"/>
    <rect class="cls-43" x="250.28" y="258.71" width="2.55" height="1.7" transform="translate(-104.66 198.23) rotate(-36.13)"/>
  </g>
</svg>